<svg width="32" height="32" viewBox="0 0 32 32" fill="none" xmlns="http://www.w3.org/2000/svg">
<path fill-rule="evenodd" clip-rule="evenodd" d="M28.1177 3.8656L26.6769 1L23.7594 3.90118C21.4592 2.4345 18.7237 1.58404 15.7885 1.58404C7.62103 1.58404 1 8.16901 1 16.292C1 24.415 7.62103 30.9999 15.7885 30.9999C23.9559 30.9999 30.577 24.415 30.577 16.292C30.577 13.2876 29.6712 10.4935 28.1164 8.16528L30.9994 5.2984L28.1177 3.8656ZM27.2613 9.0156L26.994 9.28146L24.3795 8.70372L23.8072 9.2728C25.4647 11.1443 26.4702 13.6009 26.4702 16.2909C26.4702 22.1575 21.6883 26.9133 15.7896 26.9133C9.8909 26.9133 5.10905 22.1575 5.10905 16.2909C5.10905 10.4243 9.8909 5.66852 15.7896 5.66852C18.5578 5.66852 21.0801 6.71591 22.9775 8.43397L23.5227 7.89188L22.6512 5.00317L22.9011 4.7547C20.8315 3.49 18.3956 2.76067 15.7885 2.76067C8.27442 2.76067 2.18308 8.81885 2.18308 16.292C2.18308 23.7651 8.27442 29.8233 15.7885 29.8233C23.3025 29.8233 29.3939 23.7651 29.3939 16.292C29.3939 13.6135 28.6114 11.1168 27.2613 9.0156ZM22.1399 9.26695C20.4574 7.76137 18.2311 6.84515 15.7896 6.84515C10.5443 6.84515 6.29213 11.0742 6.29213 16.2909C6.29213 21.5077 10.5443 25.7367 15.7896 25.7367C21.0349 25.7367 25.2871 21.5077 25.2871 16.2909C25.2871 13.9258 24.4131 11.7637 22.9687 10.1066L20.893 12.1707C21.8124 13.2952 22.3634 14.7295 22.3634 16.2918C22.3634 19.902 19.4207 22.8286 15.7908 22.8286C12.1608 22.8286 9.21811 19.902 9.21811 16.2918C9.21811 12.6815 12.1608 9.75489 15.7908 9.75489C17.4239 9.75489 18.9179 10.3473 20.0675 11.3278L22.1399 9.26695ZM19.2278 12.1628C18.2949 11.3938 17.0971 10.9315 15.7908 10.9315C12.8142 10.9315 10.4012 13.3314 10.4012 16.2918C10.4012 19.2521 12.8142 21.652 15.7908 21.652C18.7673 21.652 21.1803 19.2521 21.1803 16.2918C21.1803 15.0545 20.7589 13.9152 20.051 13.0081L18.5434 14.5072C18.8801 15.0202 19.0757 15.633 19.0757 16.2913C19.0757 18.0964 17.6044 19.5597 15.7894 19.5597C13.9744 19.5597 12.5031 18.0964 12.5031 16.2913C12.5031 14.4862 13.9744 13.0229 15.7894 13.0229C16.515 13.0229 17.1857 13.2567 17.7294 13.6528L19.2278 12.1628ZM16.877 14.5005C16.5596 14.3094 16.1874 14.1995 15.7894 14.1995C14.6278 14.1995 13.6862 15.136 13.6862 16.2913C13.6862 17.4466 14.6278 18.3831 15.7894 18.3831C16.951 18.3831 17.8927 17.4466 17.8927 16.2913C17.8927 15.96 17.8152 15.6468 17.6774 15.3684L16.0396 16.9971L15.203 16.1651L16.877 14.5005ZM26.6166 7.99281L24.6578 7.55996L23.9875 5.3382L26.3527 2.98621L27.2358 4.74255L29.002 5.62072L26.6166 7.99281Z" fill="#CB202D"/>
</svg>
