<svg xmlns="http://www.w3.org/2000/svg" width="210" height="424" viewBox="0 0 210 424" fill="none"><g opacity="0.8"><g style="mix-blend-mode:multiply"><ellipse rx="14.7433" ry="14.7433" transform="matrix(0.693256 -0.720691 -0.693256 -0.720691 20.4414 361.601)" fill="#F8F8FA"></ellipse><ellipse rx="18.032" ry="17.3453" transform="matrix(-1.29809e-08 -1 -1 5.20062e-08 62.8773 404.968)" fill="#F8F8FA"></ellipse><ellipse rx="11.7946" ry="11.7946" transform="matrix(0.69325 -0.720697 -0.69325 -0.720697 19.9687 272.452)" fill="#F8F8FA"></ellipse><ellipse rx="14.7433" ry="14.7433" transform="matrix(0.693256 -0.720691 -0.693256 -0.720691 62.3594 317.273)" fill="#F8F8FA"></ellipse><ellipse rx="18.032" ry="17.3453" transform="matrix(-1.29872e-08 -1 -1 5.20065e-08 104.795 360.64)" fill="#F8F8FA"></ellipse><ellipse rx="11.7947" ry="11.7947" transform="matrix(0.693251 -0.720696 -0.693251 -0.720696 63.3281 228.874)" fill="#F8F8FA"></ellipse><ellipse rx="14.7433" ry="14.7433" transform="matrix(0.693256 -0.720691 -0.693256 -0.720691 105.723 272.948)" fill="#F8F8FA"></ellipse><ellipse rx="8.84598" ry="8.84598" transform="matrix(0.693253 -0.720694 -0.693253 -0.720694 20.9375 184.808)" fill="#F8F8FA"></ellipse><ellipse rx="11.7947" ry="11.7947" transform="matrix(0.69325 -0.720697 -0.69325 -0.720697 105.246 185.3)" fill="#F8F8FA"></ellipse><ellipse rx="8.84598" ry="8.84598" transform="matrix(0.693253 -0.720694 -0.693253 -0.720694 62.8555 141.226)" fill="#F8F8FA"></ellipse><ellipse rx="5.89731" ry="5.89731" transform="matrix(-0.693258 0.72069 0.693258 0.72069 20.4648 97.1565)" fill="#F8F8FA"></ellipse><ellipse rx="8.84598" ry="8.84598" transform="matrix(0.693253 -0.720694 -0.693253 -0.720694 105.496 96.8979)" fill="#F8F8FA"></ellipse><ellipse rx="5.89733" ry="5.89733" transform="matrix(-0.693239 0.720707 0.69324 0.720707 63.1016 52.8286)" fill="#F8F8FA"></ellipse><ellipse rx="14.7433" ry="14.7433" transform="matrix(-0.693256 -0.720691 0.693256 -0.720691 189.559 361.601)" fill="#F8F8FA"></ellipse><ellipse cx="147.123" cy="404.968" rx="18.032" ry="17.3453" transform="rotate(-90 147.123 404.968)" fill="#F8F8FA"></ellipse><ellipse rx="11.7946" ry="11.7946" transform="matrix(-0.693261 -0.720687 0.693261 -0.720687 190.035 272.453)" fill="#F8F8FA"></ellipse><ellipse rx="14.7433" ry="14.7433" transform="matrix(-0.693256 -0.720691 0.693256 -0.720691 147.641 317.273)" fill="#F8F8FA"></ellipse><ellipse rx="11.7947" ry="11.7947" transform="matrix(-0.69325 -0.720697 0.69325 -0.720697 146.672 228.874)" fill="#F8F8FA"></ellipse><ellipse rx="8.84598" ry="8.84598" transform="matrix(-0.693253 -0.720694 0.693253 -0.720694 189.062 184.808)" fill="#F8F8FA"></ellipse><ellipse rx="8.84598" ry="8.84598" transform="matrix(-0.693254 -0.720694 0.693254 -0.720694 147.145 141.226)" fill="#F8F8FA"></ellipse><ellipse rx="5.89731" ry="5.89731" transform="matrix(0.693239 0.720707 -0.693239 0.720707 189.539 97.1567)" fill="#F8F8FA"></ellipse><circle r="5.89733" transform="matrix(0.693239 0.720707 -0.693239 0.720707 146.898 52.8286)" fill="#F8F8FA"></circle><ellipse rx="5.89733" ry="5.89733" transform="matrix(-0.693348 0.720603 0.693348 0.720603 105.742 8.49927)" fill="#F8F8FA"></ellipse></g></g></svg>