<svg width="32" height="32" viewBox="0 0 32 32" fill="none" xmlns="http://www.w3.org/2000/svg">
<mask id="path-1-inside-1" fill="white">
<path d="M30.3377 8.89853C29.3359 6.8759 27.9174 5.08811 26.1756 3.65262C24.4337 2.21714 22.4078 1.16645 20.231 0.569566C18.0542 -0.0273137 15.7758 -0.15687 13.5454 0.189409C11.3149 0.535688 9.18302 1.34997 7.28967 2.57875C5.39631 3.80753 3.78436 5.423 2.55973 7.31904C1.33509 9.21508 0.525478 11.3488 0.184078 13.58C-0.157321 15.8111 -0.0227821 18.0893 0.578857 20.2648C1.1805 22.4403 2.23562 24.4638 3.67491 26.2026L4.74748 25.3147C3.43344 23.7273 2.47014 21.8798 1.92085 19.8936C1.37157 17.9075 1.24874 15.8276 1.56043 13.7906C1.87212 11.7535 2.61128 9.80553 3.72934 8.07449C4.8474 6.34344 6.31907 4.86855 8.04767 3.7467C9.77626 2.62486 11.7227 1.88144 13.759 1.5653C15.7953 1.24915 17.8755 1.36743 19.8628 1.91237C21.8502 2.45731 23.6998 3.41657 25.2901 4.72713C26.8803 6.03769 28.1753 7.6699 29.09 9.51653L30.3377 8.89853Z"/>
</mask>
<path d="M30.3377 8.89853C29.3359 6.8759 27.9174 5.08811 26.1756 3.65262C24.4337 2.21714 22.4078 1.16645 20.231 0.569566C18.0542 -0.0273137 15.7758 -0.15687 13.5454 0.189409C11.3149 0.535688 9.18302 1.34997 7.28967 2.57875C5.39631 3.80753 3.78436 5.423 2.55973 7.31904C1.33509 9.21508 0.525478 11.3488 0.184078 13.58C-0.157321 15.8111 -0.0227821 18.0893 0.578857 20.2648C1.1805 22.4403 2.23562 24.4638 3.67491 26.2026L4.74748 25.3147C3.43344 23.7273 2.47014 21.8798 1.92085 19.8936C1.37157 17.9075 1.24874 15.8276 1.56043 13.7906C1.87212 11.7535 2.61128 9.80553 3.72934 8.07449C4.8474 6.34344 6.31907 4.86855 8.04767 3.7467C9.77626 2.62486 11.7227 1.88144 13.759 1.5653C15.7953 1.24915 17.8755 1.36743 19.8628 1.91237C21.8502 2.45731 23.6998 3.41657 25.2901 4.72713C26.8803 6.03769 28.1753 7.6699 29.09 9.51653L30.3377 8.89853Z" stroke="#1F2E64" stroke-width="2" mask="url(#path-1-inside-1)"/>
<circle cx="14.3787" cy="15.1254" r="1.91671" transform="rotate(-5.79052 14.3787 15.1254)" fill="#1F2E64" stroke="#1F2E64"/>
<path d="M15.8565 14.2673L14.7721 13.4533L18.4426 9.92906L15.8565 14.2673Z" fill="#1F2E64" stroke="#1F2E64" stroke-linecap="square"/>
<path d="M7.46967 29.4697L6.93934 30L8 31.0607L8.53033 30.5303L7.46967 29.4697ZM17 21L17.5303 20.4697L17 19.9393L16.4697 20.4697L17 21ZM21 25L20.4697 25.5303L21 26.0607L21.5303 25.5303L21 25ZM29.5303 17.5303L30.0607 17L29 15.9393L28.4697 16.4697L29.5303 17.5303ZM8.53033 30.5303L17.5303 21.5303L16.4697 20.4697L7.46967 29.4697L8.53033 30.5303ZM16.4697 21.5303L20.4697 25.5303L21.5303 24.4697L17.5303 20.4697L16.4697 21.5303ZM21.5303 25.5303L29.5303 17.5303L28.4697 16.4697L20.4697 24.4697L21.5303 25.5303Z" fill="#1F2E64"/>
<path d="M31 20L26 15L32 14L31 20Z" fill="#1F2E64"/>
<path d="M16 1L16 4" stroke="#1F2E64" stroke-width="1.5" stroke-linecap="square" stroke-linejoin="round"/>
<path d="M26.2324 5L24.0002 7.00428" stroke="#1F2E64" stroke-width="1.5" stroke-linecap="square" stroke-linejoin="round"/>
<path d="M6 5L8.12132 7.12132" stroke="#1F2E64" stroke-width="1.5" stroke-linecap="square" stroke-linejoin="round"/>
<path d="M1.5 15L4.5 15" stroke="#1F2E64" stroke-width="1.5" stroke-linecap="square" stroke-linejoin="round"/>
<path d="M4 24.9453L6.28425 23.0005" stroke="#1F2E64" stroke-width="1.5" stroke-linecap="square" stroke-linejoin="round"/>
</svg>
