<svg width="34" height="34" viewBox="0 0 34 34" fill="none" xmlns="http://www.w3.org/2000/svg">
<mask id="path-1-outside-1" maskUnits="userSpaceOnUse" x="0" y="0" width="34" height="34" fill="black">
<rect fill="white" width="34" height="34"/>
<path fill-rule="evenodd" clip-rule="evenodd" d="M22.2979 31.0376C20.6506 31.6596 18.865 32 17 32C12.685 32 8.7956 30.178 6.05905 27.2614V25.5921C6.05905 23.4103 7.70851 21.6137 9.82846 21.3814C10.1748 23.3726 11.9115 24.8866 14.0018 24.8866C16.1005 24.8866 17.8427 23.3605 18.1793 21.3575C20.4645 21.4198 22.2979 23.2919 22.2979 25.5921V31.0376ZM23.3569 30.5903C24.5727 30.0207 25.6994 29.2927 26.7106 28.433V28.0634C26.7106 25.7508 25.0634 23.8229 22.8783 23.389C23.1856 24.0598 23.3569 24.806 23.3569 25.5921V30.5903ZM27.74 27.4715C28.2262 26.973 28.6779 26.4407 29.0914 25.8785C28.4403 25.0551 27.4823 24.4723 26.3834 24.2912C27.1279 25.1664 27.6182 26.2646 27.74 27.4715ZM29.6494 25.0652C28.9436 24.2776 27.9948 23.7007 26.9163 23.4444C27.2697 22.9358 27.4588 21.7866 27.4954 21.0762C27.6843 20.9179 27.8606 20.7294 28.0002 20.4973C28.1927 20.1772 28.2996 19.8003 28.2996 19.3563C28.2996 18.8615 28.1012 18.4903 27.9163 18.2536C27.8681 18.192 27.8199 18.1383 27.7749 18.0924C27.8774 16.7909 27.5236 15.829 26.8684 15.1921C26.188 14.5307 25.2585 14.2949 24.4165 14.2949C24.26 14.2949 24.0929 14.3177 23.9217 14.356C23.7672 14.0906 23.5774 13.8567 23.3571 13.6541C22.598 12.9559 21.5612 12.707 20.6219 12.707C19.7172 12.707 19.0853 12.8268 18.6536 12.9693C18.5937 11.7629 18.1537 10.7916 17.3642 10.0976C16.3883 9.23971 15.0916 9 14.0023 9C12.9672 9 11.6682 9.16769 10.6802 10.0101C9.7621 10.7928 9.3298 11.96 9.36032 13.4579C9.05568 13.7682 8.79842 14.2169 8.7283 14.8205C8.64101 15.572 8.81277 16.3936 9.42464 17.0325C9.56611 18.4231 10.2464 19.5658 11.242 20.2969H10.2953C7.37078 20.2969 5 22.6676 5 25.5921V26.0015C3.11627 23.4942 2 20.3775 2 17C2 8.71573 8.71573 2 17 2C25.2843 2 32 8.71573 32 17C32 19.9688 31.1375 22.7362 29.6494 25.0652ZM33 17C33 25.8366 25.8366 33 17 33C8.16344 33 1 25.8366 1 17C1 8.16344 8.16344 1 17 1C25.8366 1 33 8.16344 33 17ZM18.1146 14.9502C18.1839 15.5472 18.0078 16.1108 17.4381 16.4871C17.4381 18.6264 15.8999 20.0331 14.0023 20.0331C12.1048 20.0331 10.5665 18.6264 10.5665 16.4871C9.99682 16.1109 9.82064 15.5472 9.89 14.9502C9.9029 14.8391 9.92627 14.7407 9.95677 14.6536C10.1369 14.1393 10.5665 14.0195 10.5665 14.0195C10.2323 10.7981 12.1048 10.146 14.0023 10.146C15.8159 10.146 17.6708 10.9268 17.4783 13.6312C17.4694 13.7565 17.4561 13.8859 17.4381 14.0195C17.4381 14.0195 18.0255 14.1833 18.1146 14.9502ZM18.0617 20.2969H16.7627C17.7583 19.5658 18.4385 18.4231 18.58 17.0325C19.1919 16.3935 19.3636 15.5719 19.2763 14.8205C19.2379 14.4899 19.1433 14.2057 19.0156 13.9653C19.3258 13.8669 19.8355 13.7661 20.6219 13.7661C21.4014 13.7661 22.1425 13.9758 22.6401 14.4335C23.1143 14.8697 23.4524 15.6099 23.2864 16.8743L23.2417 17.2144L23.5291 17.3913L23.5339 17.3946C23.5413 17.3998 23.555 17.4097 23.5729 17.4243C23.6093 17.4539 23.6595 17.4997 23.7095 17.5602C23.8096 17.6813 23.8946 17.8426 23.8946 18.0496C23.8946 18.328 23.8269 18.5268 23.7258 18.6859C23.6203 18.8518 23.4607 19.0019 23.2384 19.1518L23.0048 19.3092V19.5909C23.0048 20.3 22.8263 20.8355 22.5551 21.1813C22.3359 21.4607 22.0365 21.6436 21.6462 21.6945C20.7031 20.8268 19.4443 20.2969 18.0617 20.2969ZM10.9033 21.3559C11.2242 22.7711 12.4896 23.8275 14.0018 23.8275C15.5141 23.8275 16.7795 22.7711 17.1004 21.3559H10.9033ZM24.2888 15.309C24.3819 15.7271 24.4116 16.1956 24.3683 16.7155C24.4185 16.7639 24.4722 16.8206 24.526 16.8857C24.7323 17.1354 24.9537 17.5273 24.9537 18.0496C24.9537 18.5182 24.8344 18.9161 24.6196 19.254C24.4639 19.499 24.2672 19.6979 24.0565 19.865C24.0149 20.6288 23.7968 21.3142 23.3883 21.835C23.2424 22.021 23.0754 22.1817 22.8898 22.3148C23.7973 22.4629 24.6344 22.8206 25.3496 23.3368C25.6922 23.2857 25.9558 23.1136 26.1494 22.8527C26.3926 22.5251 26.5526 21.4882 26.5526 20.8165V20.5496L26.762 20.4005C26.9613 20.2585 27.1044 20.1163 27.199 19.9591C27.2896 19.8084 27.3503 19.62 27.3503 19.3563C27.3503 19.1602 27.274 19.0074 27.1844 18.8927C27.1395 18.8353 27.0945 18.7919 27.0619 18.7639C27.0458 18.7501 27.0336 18.7407 27.027 18.7358L27.0227 18.7327L26.765 18.5651L26.805 18.2428C26.9539 17.045 26.6507 16.3437 26.2257 15.9305C25.7796 15.4969 25.1153 15.2982 24.4165 15.2982C24.3594 15.2982 24.3184 15.3021 24.2888 15.309Z"/>
</mask>
<path fill-rule="evenodd" clip-rule="evenodd" d="M22.2979 31.0376C20.6506 31.6596 18.865 32 17 32C12.685 32 8.7956 30.178 6.05905 27.2614V25.5921C6.05905 23.4103 7.70851 21.6137 9.82846 21.3814C10.1748 23.3726 11.9115 24.8866 14.0018 24.8866C16.1005 24.8866 17.8427 23.3605 18.1793 21.3575C20.4645 21.4198 22.2979 23.2919 22.2979 25.5921V31.0376ZM23.3569 30.5903C24.5727 30.0207 25.6994 29.2927 26.7106 28.433V28.0634C26.7106 25.7508 25.0634 23.8229 22.8783 23.389C23.1856 24.0598 23.3569 24.806 23.3569 25.5921V30.5903ZM27.74 27.4715C28.2262 26.973 28.6779 26.4407 29.0914 25.8785C28.4403 25.0551 27.4823 24.4723 26.3834 24.2912C27.1279 25.1664 27.6182 26.2646 27.74 27.4715ZM29.6494 25.0652C28.9436 24.2776 27.9948 23.7007 26.9163 23.4444C27.2697 22.9358 27.4588 21.7866 27.4954 21.0762C27.6843 20.9179 27.8606 20.7294 28.0002 20.4973C28.1927 20.1772 28.2996 19.8003 28.2996 19.3563C28.2996 18.8615 28.1012 18.4903 27.9163 18.2536C27.8681 18.192 27.8199 18.1383 27.7749 18.0924C27.8774 16.7909 27.5236 15.829 26.8684 15.1921C26.188 14.5307 25.2585 14.2949 24.4165 14.2949C24.26 14.2949 24.0929 14.3177 23.9217 14.356C23.7672 14.0906 23.5774 13.8567 23.3571 13.6541C22.598 12.9559 21.5612 12.707 20.6219 12.707C19.7172 12.707 19.0853 12.8268 18.6536 12.9693C18.5937 11.7629 18.1537 10.7916 17.3642 10.0976C16.3883 9.23971 15.0916 9 14.0023 9C12.9672 9 11.6682 9.16769 10.6802 10.0101C9.7621 10.7928 9.3298 11.96 9.36032 13.4579C9.05568 13.7682 8.79842 14.2169 8.7283 14.8205C8.64101 15.572 8.81277 16.3936 9.42464 17.0325C9.56611 18.4231 10.2464 19.5658 11.242 20.2969H10.2953C7.37078 20.2969 5 22.6676 5 25.5921V26.0015C3.11627 23.4942 2 20.3775 2 17C2 8.71573 8.71573 2 17 2C25.2843 2 32 8.71573 32 17C32 19.9688 31.1375 22.7362 29.6494 25.0652ZM33 17C33 25.8366 25.8366 33 17 33C8.16344 33 1 25.8366 1 17C1 8.16344 8.16344 1 17 1C25.8366 1 33 8.16344 33 17ZM18.1146 14.9502C18.1839 15.5472 18.0078 16.1108 17.4381 16.4871C17.4381 18.6264 15.8999 20.0331 14.0023 20.0331C12.1048 20.0331 10.5665 18.6264 10.5665 16.4871C9.99682 16.1109 9.82064 15.5472 9.89 14.9502C9.9029 14.8391 9.92627 14.7407 9.95677 14.6536C10.1369 14.1393 10.5665 14.0195 10.5665 14.0195C10.2323 10.7981 12.1048 10.146 14.0023 10.146C15.8159 10.146 17.6708 10.9268 17.4783 13.6312C17.4694 13.7565 17.4561 13.8859 17.4381 14.0195C17.4381 14.0195 18.0255 14.1833 18.1146 14.9502ZM18.0617 20.2969H16.7627C17.7583 19.5658 18.4385 18.4231 18.58 17.0325C19.1919 16.3935 19.3636 15.5719 19.2763 14.8205C19.2379 14.4899 19.1433 14.2057 19.0156 13.9653C19.3258 13.8669 19.8355 13.7661 20.6219 13.7661C21.4014 13.7661 22.1425 13.9758 22.6401 14.4335C23.1143 14.8697 23.4524 15.6099 23.2864 16.8743L23.2417 17.2144L23.5291 17.3913L23.5339 17.3946C23.5413 17.3998 23.555 17.4097 23.5729 17.4243C23.6093 17.4539 23.6595 17.4997 23.7095 17.5602C23.8096 17.6813 23.8946 17.8426 23.8946 18.0496C23.8946 18.328 23.8269 18.5268 23.7258 18.6859C23.6203 18.8518 23.4607 19.0019 23.2384 19.1518L23.0048 19.3092V19.5909C23.0048 20.3 22.8263 20.8355 22.5551 21.1813C22.3359 21.4607 22.0365 21.6436 21.6462 21.6945C20.7031 20.8268 19.4443 20.2969 18.0617 20.2969ZM10.9033 21.3559C11.2242 22.7711 12.4896 23.8275 14.0018 23.8275C15.5141 23.8275 16.7795 22.7711 17.1004 21.3559H10.9033ZM24.2888 15.309C24.3819 15.7271 24.4116 16.1956 24.3683 16.7155C24.4185 16.7639 24.4722 16.8206 24.526 16.8857C24.7323 17.1354 24.9537 17.5273 24.9537 18.0496C24.9537 18.5182 24.8344 18.9161 24.6196 19.254C24.4639 19.499 24.2672 19.6979 24.0565 19.865C24.0149 20.6288 23.7968 21.3142 23.3883 21.835C23.2424 22.021 23.0754 22.1817 22.8898 22.3148C23.7973 22.4629 24.6344 22.8206 25.3496 23.3368C25.6922 23.2857 25.9558 23.1136 26.1494 22.8527C26.3926 22.5251 26.5526 21.4882 26.5526 20.8165V20.5496L26.762 20.4005C26.9613 20.2585 27.1044 20.1163 27.199 19.9591C27.2896 19.8084 27.3503 19.62 27.3503 19.3563C27.3503 19.1602 27.274 19.0074 27.1844 18.8927C27.1395 18.8353 27.0945 18.7919 27.0619 18.7639C27.0458 18.7501 27.0336 18.7407 27.027 18.7358L27.0227 18.7327L26.765 18.5651L26.805 18.2428C26.9539 17.045 26.6507 16.3437 26.2257 15.9305C25.7796 15.4969 25.1153 15.2982 24.4165 15.2982C24.3594 15.2982 24.3184 15.3021 24.2888 15.309Z" fill="#1F2E64"/>
<path d="M22.2979 31.0376L22.3332 31.1312L22.3979 31.1067V31.0376H22.2979ZM6.05905 27.2614H5.95905V27.301L5.98613 27.3299L6.05905 27.2614ZM9.82846 21.3814L9.92698 21.3642L9.91089 21.2717L9.81756 21.282L9.82846 21.3814ZM18.1793 21.3575L18.182 21.2576L18.0951 21.2552L18.0807 21.341L18.1793 21.3575ZM23.3569 30.5903H23.2569V30.7476L23.3994 30.6808L23.3569 30.5903ZM26.7106 28.433L26.7754 28.5092L26.8106 28.4792V28.433H26.7106ZM22.8783 23.389L22.8978 23.2909L22.7059 23.2528L22.7874 23.4306L22.8783 23.389ZM27.74 27.4715L27.6405 27.4816L27.662 27.6947L27.8116 27.5414L27.74 27.4715ZM29.0914 25.8785L29.172 25.9377L29.2172 25.8763L29.1699 25.8164L29.0914 25.8785ZM26.3834 24.2912L26.3996 24.1925L26.1304 24.1481L26.3072 24.356L26.3834 24.2912ZM26.9163 23.4444L26.8341 23.3873L26.7504 23.5077L26.8931 23.5416L26.9163 23.4444ZM29.6494 25.0652L29.575 25.132L29.6628 25.23L29.7337 25.1191L29.6494 25.0652ZM27.4954 21.0762L27.4311 20.9995L27.3977 21.0275L27.3955 21.071L27.4954 21.0762ZM28.0002 20.4973L27.9145 20.4458L28.0002 20.4973ZM27.9163 18.2536L27.8375 18.3152H27.8375L27.9163 18.2536ZM27.7749 18.0924L27.6752 18.0846L27.6717 18.1299L27.7036 18.1624L27.7749 18.0924ZM26.8684 15.1921L26.7987 15.2638L26.8684 15.1921ZM23.9217 14.356L23.8352 14.4063L23.8721 14.4696L23.9435 14.4536L23.9217 14.356ZM23.3571 13.6541L23.4248 13.5805V13.5805L23.3571 13.6541ZM18.6536 12.9693L18.5538 12.9743L18.5603 13.1055L18.685 13.0643L18.6536 12.9693ZM17.3642 10.0976L17.4302 10.0225L17.3642 10.0976ZM10.6802 10.0101L10.7451 10.0862L10.6802 10.0101ZM9.36032 13.4579L9.43168 13.528L9.46116 13.4979L9.4603 13.4559L9.36032 13.4579ZM8.7283 14.8205L8.82763 14.8321L8.82763 14.8321L8.7283 14.8205ZM9.42464 17.0325L9.52413 17.0224L9.52065 16.9882L9.49687 16.9633L9.42464 17.0325ZM11.242 20.2969V20.3969H11.5471L11.3012 20.2163L11.242 20.2969ZM5 26.0015L4.92005 26.0615L5.1 26.301V26.0015H5ZM17.4381 16.4871L17.383 16.4037L17.3381 16.4333V16.4871H17.4381ZM18.1146 14.9502L18.214 14.9387L18.214 14.9387L18.1146 14.9502ZM10.5665 16.4871H10.6665V16.4333L10.6216 16.4037L10.5665 16.4871ZM9.89 14.9502L9.98933 14.9617L9.98933 14.9617L9.89 14.9502ZM9.95677 14.6536L9.8624 14.6205L9.8624 14.6205L9.95677 14.6536ZM10.5665 14.0195L10.5933 14.1158L10.6747 14.0932L10.6659 14.0092L10.5665 14.0195ZM17.4783 13.6312L17.3785 13.6241L17.3785 13.6241L17.4783 13.6312ZM17.4381 14.0195L17.339 14.0062L17.3275 14.0925L17.4113 14.1158L17.4381 14.0195ZM16.7627 20.2969L16.7035 20.2163L16.4575 20.3969H16.7627V20.2969ZM18.58 17.0325L18.5078 16.9633L18.484 16.9881L18.4805 17.0223L18.58 17.0325ZM19.2763 14.8205L19.3757 14.809L19.3757 14.809L19.2763 14.8205ZM19.0156 13.9653L18.9853 13.87L18.871 13.9063L18.9273 14.0122L19.0156 13.9653ZM22.6401 14.4335L22.5724 14.5071V14.5071L22.6401 14.4335ZM23.2864 16.8743L23.1872 16.8613L23.2864 16.8743ZM23.2417 17.2144L23.1425 17.2014L23.1341 17.2657L23.1893 17.2996L23.2417 17.2144ZM23.5291 17.3913L23.5857 17.3087L23.5816 17.3062L23.5291 17.3913ZM23.5339 17.3946L23.5913 17.3127L23.5904 17.3121L23.5339 17.3946ZM23.5729 17.4243L23.5098 17.5019L23.5729 17.4243ZM23.7095 17.5602L23.6324 17.6239L23.6324 17.6239L23.7095 17.5602ZM23.7258 18.6859L23.6414 18.6322H23.6414L23.7258 18.6859ZM23.2384 19.1518L23.1825 19.0689V19.0689L23.2384 19.1518ZM23.0048 19.3092L22.9489 19.2263L22.9048 19.256V19.3092H23.0048ZM22.5551 21.1813L22.4764 21.1196L22.5551 21.1813ZM21.6462 21.6945L21.5785 21.7681L21.6128 21.7997L21.6591 21.7937L21.6462 21.6945ZM10.9033 21.3559V21.2559H10.7781L10.8058 21.378L10.9033 21.3559ZM17.1004 21.3559L17.1979 21.378L17.2256 21.2559H17.1004V21.3559ZM24.3683 16.7155L24.2687 16.7072L24.2647 16.7545L24.2989 16.7875L24.3683 16.7155ZM24.2888 15.309L24.2661 15.2116L24.1696 15.2341L24.1912 15.3308L24.2888 15.309ZM24.526 16.8857L24.4489 16.9494L24.4489 16.9494L24.526 16.8857ZM24.6196 19.254L24.5352 19.2004L24.5352 19.2004L24.6196 19.254ZM24.0565 19.865L23.9943 19.7867L23.9591 19.8146L23.9566 19.8596L24.0565 19.865ZM23.3883 21.835L23.467 21.8967L23.3883 21.835ZM22.8898 22.3148L22.8315 22.2336L22.6349 22.3746L22.8737 22.4135L22.8898 22.3148ZM25.3496 23.3368L25.2911 23.4178L25.3241 23.4417L25.3644 23.4357L25.3496 23.3368ZM26.1494 22.8527L26.0691 22.7931L26.1494 22.8527ZM26.5526 20.5496L26.4946 20.4682L26.4526 20.4981V20.5496H26.5526ZM26.762 20.4005L26.704 20.319H26.704L26.762 20.4005ZM27.199 19.9591L27.1133 19.9075V19.9075L27.199 19.9591ZM27.1844 18.8927L27.1056 18.9542H27.1056L27.1844 18.8927ZM27.0619 18.7639L26.9967 18.8397L27.0619 18.7639ZM27.027 18.7358L27.0864 18.6554L27.0856 18.6548L27.027 18.7358ZM27.0227 18.7327L27.0813 18.6516L27.0772 18.6488L27.0227 18.7327ZM26.765 18.5651L26.6657 18.5528L26.658 18.6148L26.7104 18.6489L26.765 18.5651ZM26.805 18.2428L26.7058 18.2305L26.805 18.2428ZM26.2257 15.9305L26.2954 15.8588L26.2257 15.9305ZM17 32.1C18.8773 32.1 20.6748 31.7574 22.3332 31.1312L22.2626 30.944C20.6264 31.5619 18.8528 31.9 17 31.9V32.1ZM5.98613 27.3299C8.74078 30.2658 12.6563 32.1 17 32.1V31.9C12.7138 31.9 8.85041 30.0903 6.13198 27.193L5.98613 27.3299ZM5.95905 25.5921V27.2614H6.15905V25.5921H5.95905ZM9.81756 21.282C7.64746 21.5198 5.95905 23.3587 5.95905 25.5921H6.15905C6.15905 23.4619 7.76955 21.7076 9.83936 21.4808L9.81756 21.282ZM14.0018 24.7866C11.961 24.7866 10.2651 23.3084 9.92698 21.3642L9.72994 21.3985C10.0845 23.4368 11.8621 24.9866 14.0018 24.9866V24.7866ZM18.0807 21.341C17.7521 23.2966 16.0509 24.7866 14.0018 24.7866V24.9866C16.1501 24.9866 17.9334 23.4244 18.2779 21.3741L18.0807 21.341ZM22.3979 25.5921C22.3979 23.2376 20.5212 21.3213 18.182 21.2576L18.1766 21.4575C20.4078 21.5183 22.1979 23.3462 22.1979 25.5921H22.3979ZM22.3979 31.0376V25.5921H22.1979V31.0376H22.3979ZM23.3994 30.6808C24.6232 30.1074 25.7575 29.3746 26.7754 28.5092L26.6458 28.3568C25.6413 29.2108 24.5221 29.9339 23.3145 30.4997L23.3994 30.6808ZM26.8106 28.433V28.0634H26.6106V28.433H26.8106ZM26.8106 28.0634C26.8106 25.7021 25.1288 23.7339 22.8978 23.2909L22.8588 23.4871C24.9981 23.9119 26.6106 25.7994 26.6106 28.0634H26.8106ZM22.7874 23.4306C23.0888 24.0887 23.2569 24.8206 23.2569 25.5921H23.4569C23.4569 24.7913 23.2824 24.031 22.9692 23.3473L22.7874 23.4306ZM23.2569 25.5921V30.5903H23.4569V25.5921H23.2569ZM27.8116 27.5414C28.301 27.0395 28.7557 26.5037 29.172 25.9377L29.0109 25.8192C28.6001 26.3777 28.1514 26.9065 27.6684 27.4017L27.8116 27.5414ZM29.1699 25.8164C28.5034 24.9738 27.5234 24.3778 26.3996 24.1925L26.3671 24.3898C27.4412 24.5669 28.3771 25.1365 29.013 25.9405L29.1699 25.8164ZM26.3072 24.356C27.039 25.2162 27.5208 26.2955 27.6405 27.4816L27.8395 27.4615C27.7156 26.2337 27.2168 25.1165 26.4595 24.2264L26.3072 24.356ZM26.8931 23.5416C27.9516 23.7932 28.8826 24.3594 29.575 25.132L29.7239 24.9985C29.0046 24.1959 28.0379 23.6081 26.9394 23.3471L26.8931 23.5416ZM27.3955 21.071C27.3775 21.4211 27.3217 21.8806 27.2269 22.3146C27.1314 22.7521 26.999 23.1501 26.8341 23.3873L26.9984 23.5014C27.1869 23.2301 27.3258 22.7992 27.4223 22.3573C27.5196 21.912 27.5767 21.4417 27.5952 21.0813L27.3955 21.071ZM27.9145 20.4458C27.7818 20.6663 27.6136 20.8466 27.4311 20.9995L27.5596 21.1528C27.755 20.9891 27.9394 20.7925 28.0859 20.5489L27.9145 20.4458ZM28.1996 19.3563C28.1996 19.7834 28.097 20.1423 27.9145 20.4458L28.0859 20.5489C28.2884 20.2121 28.3996 19.8171 28.3996 19.3563H28.1996ZM27.8375 18.3152C28.0128 18.5395 28.1996 18.8896 28.1996 19.3563H28.3996C28.3996 18.8333 28.1897 18.441 27.995 18.192L27.8375 18.3152ZM27.7036 18.1624C27.7462 18.2059 27.7918 18.2568 27.8375 18.3152L27.995 18.192C27.9443 18.1272 27.8937 18.0706 27.8463 18.0224L27.7036 18.1624ZM26.7987 15.2638C27.428 15.8756 27.7759 16.8058 27.6752 18.0846L27.8746 18.1003C27.9789 16.776 27.6191 15.7824 26.9381 15.1204L26.7987 15.2638ZM24.4165 14.3949C25.2421 14.3949 26.1429 14.6263 26.7987 15.2638L26.9381 15.1204C26.2331 14.435 25.2749 14.1949 24.4165 14.1949V14.3949ZM23.9435 14.4536C24.1098 14.4164 24.2693 14.3949 24.4165 14.3949V14.1949C24.2507 14.1949 24.076 14.219 23.8998 14.2584L23.9435 14.4536ZM23.2894 13.7277C23.5025 13.9237 23.6859 14.1497 23.8352 14.4063L24.0081 14.3057C23.8485 14.0314 23.6523 13.7898 23.4248 13.5805L23.2894 13.7277ZM20.6219 12.807C21.5462 12.807 22.5551 13.0522 23.2894 13.7277L23.4248 13.5805C22.641 12.8595 21.5762 12.607 20.6219 12.607V12.807ZM18.685 13.0643C19.1049 12.9256 19.7259 12.807 20.6219 12.807V12.607C19.7084 12.607 19.0658 12.7279 18.6223 12.8744L18.685 13.0643ZM17.2981 10.1727C18.0645 10.8464 18.495 11.7909 18.5538 12.9743L18.7535 12.9644C18.6925 11.7349 18.2428 10.7369 17.4302 10.0225L17.2981 10.1727ZM14.0023 9.1C15.0801 9.1 16.3482 9.33765 17.2981 10.1727L17.4302 10.0225C16.4283 9.14176 15.1031 8.9 14.0023 8.9V9.1ZM10.7451 10.0862C11.7054 9.26739 12.9742 9.1 14.0023 9.1V8.9C12.9601 8.9 11.631 9.06798 10.6153 9.93396L10.7451 10.0862ZM9.4603 13.4559C9.4302 11.9787 9.85605 10.8441 10.7451 10.0862L10.6153 9.93396C9.66815 10.7415 9.2294 11.9414 9.26035 13.4599L9.4603 13.4559ZM8.82763 14.8321C8.89502 14.2519 9.14156 13.8235 9.43168 13.528L9.28897 13.3878C8.96981 13.7129 8.70182 14.1818 8.62897 14.809L8.82763 14.8321ZM9.49687 16.9633C8.90999 16.3505 8.74297 15.5609 8.82763 14.8321L8.62897 14.809C8.53905 15.5831 8.71554 16.4366 9.35242 17.1017L9.49687 16.9633ZM11.3012 20.2163C10.3288 19.5022 9.66279 18.3854 9.52413 17.0224L9.32516 17.0426C9.46943 18.4608 10.1639 19.6293 11.1828 20.3775L11.3012 20.2163ZM10.2953 20.3969H11.242V20.1969H10.2953V20.3969ZM5.1 25.5921C5.1 22.7229 7.426 20.3969 10.2953 20.3969V20.1969C7.31555 20.1969 4.9 22.6124 4.9 25.5921H5.1ZM5.1 26.0015V25.5921H4.9V26.0015H5.1ZM1.9 17C1.9 20.3999 3.02375 23.5376 4.92005 26.0615L5.07995 25.9414C3.20878 23.4509 2.1 20.3551 2.1 17H1.9ZM17 1.9C8.6605 1.9 1.9 8.6605 1.9 17H2.1C2.1 8.77096 8.77096 2.1 17 2.1V1.9ZM32.1 17C32.1 8.6605 25.3395 1.9 17 1.9V2.1C25.229 2.1 31.9 8.77096 31.9 17H32.1ZM29.7337 25.1191C31.2318 22.7744 32.1 19.9885 32.1 17H31.9C31.9 19.9492 31.0433 22.6979 29.5652 25.0114L29.7337 25.1191ZM17 33.1C25.8918 33.1 33.1 25.8918 33.1 17H32.9C32.9 25.7813 25.7813 32.9 17 32.9V33.1ZM0.9 17C0.9 25.8918 8.10822 33.1 17 33.1V32.9C8.21867 32.9 1.1 25.7813 1.1 17H0.9ZM17 0.9C8.10822 0.9 0.9 8.10822 0.9 17H1.1C1.1 8.21867 8.21867 1.1 17 1.1V0.9ZM33.1 17C33.1 8.10822 25.8918 0.9 17 0.9V1.1C25.7813 1.1 32.9 8.21867 32.9 17H33.1ZM17.4933 16.5706C18.1007 16.1693 18.2867 15.565 18.214 14.9387L18.0153 14.9617C18.0812 15.5294 17.9149 16.0523 17.383 16.4037L17.4933 16.5706ZM14.0023 20.1331C15.9547 20.1331 17.5381 18.6821 17.5381 16.4871H17.3381C17.3381 18.5708 15.845 19.9331 14.0023 19.9331V20.1331ZM10.4665 16.4871C10.4665 18.682 12.0499 20.1331 14.0023 20.1331V19.9331C12.1596 19.9331 10.6665 18.5708 10.6665 16.4871H10.4665ZM9.79067 14.9387C9.71789 15.565 9.90396 16.1694 10.5114 16.5706L10.6216 16.4037C10.0897 16.0523 9.92338 15.5294 9.98933 14.9617L9.79067 14.9387ZM9.8624 14.6205C9.82936 14.7148 9.80439 14.8205 9.79067 14.9387L9.98933 14.9617C10.0014 14.8577 10.0232 14.7665 10.0512 14.6866L9.8624 14.6205ZM10.5665 14.0195C10.5396 13.9232 10.5396 13.9232 10.5395 13.9232C10.5395 13.9232 10.5395 13.9232 10.5394 13.9232C10.5393 13.9233 10.5393 13.9233 10.5392 13.9233C10.539 13.9234 10.5388 13.9234 10.5385 13.9235C10.5381 13.9236 10.5375 13.9238 10.5368 13.924C10.5355 13.9244 10.5338 13.9249 10.5316 13.9256C10.5274 13.9269 10.5215 13.9288 10.5143 13.9314C10.4999 13.9365 10.4799 13.9442 10.4557 13.955C10.4074 13.9766 10.3419 14.0109 10.2705 14.0627C10.1271 14.1667 9.96033 14.3409 9.8624 14.6205L10.0512 14.6866C10.1334 14.4519 10.2715 14.3091 10.3879 14.2246C10.4464 14.1822 10.4995 14.1545 10.5374 14.1375C10.5563 14.1291 10.5712 14.1234 10.581 14.1199C10.5859 14.1182 10.5895 14.117 10.5916 14.1164C10.5927 14.116 10.5933 14.1158 10.5936 14.1158C10.5938 14.1157 10.5938 14.1157 10.5938 14.1157C10.5938 14.1157 10.5937 14.1157 10.5936 14.1158C10.5936 14.1158 10.5936 14.1158 10.5935 14.1158C10.5935 14.1158 10.5934 14.1158 10.5934 14.1158C10.5934 14.1158 10.5933 14.1158 10.5665 14.0195ZM14.0023 10.046C13.0465 10.046 12.0739 10.2093 11.3826 10.7986C10.6854 11.3931 10.2979 12.3997 10.467 14.0298L10.6659 14.0092C10.5009 12.418 10.8826 11.4878 11.5124 10.9508C12.1482 10.4087 13.0606 10.246 14.0023 10.246V10.046ZM17.578 13.6383C17.6761 12.2602 17.252 11.3541 16.555 10.7964C15.8638 10.2432 14.9205 10.046 14.0023 10.046V10.246C14.8977 10.246 15.7886 10.4392 16.4301 10.9525C17.0658 11.4613 17.4729 12.2979 17.3785 13.6241L17.578 13.6383ZM17.5373 14.0328C17.5554 13.8972 17.569 13.7658 17.578 13.6383L17.3785 13.6241C17.3698 13.7472 17.3567 13.8746 17.339 14.0062L17.5373 14.0328ZM18.214 14.9387C18.1663 14.5282 17.9836 14.2734 17.8084 14.1217C17.7216 14.0465 17.6377 13.9975 17.5749 13.9671C17.5434 13.9518 17.5171 13.9412 17.4981 13.9342C17.4886 13.9307 17.4809 13.9281 17.4753 13.9263C17.4725 13.9254 17.4702 13.9247 17.4685 13.9242C17.4676 13.9239 17.4669 13.9237 17.4663 13.9236C17.466 13.9235 17.4658 13.9234 17.4656 13.9233C17.4654 13.9233 17.4653 13.9233 17.4653 13.9233C17.4652 13.9232 17.4651 13.9232 17.4651 13.9232C17.4651 13.9232 17.465 13.9232 17.4381 14.0195C17.4113 14.1158 17.4112 14.1158 17.4112 14.1158C17.4112 14.1158 17.4111 14.1158 17.4111 14.1158C17.411 14.1158 17.411 14.1158 17.4109 14.1157C17.4109 14.1157 17.4108 14.1157 17.4108 14.1157C17.4108 14.1157 17.4109 14.1157 17.4112 14.1158C17.4117 14.116 17.4127 14.1163 17.4142 14.1168C17.4173 14.1177 17.4223 14.1194 17.429 14.1219C17.4425 14.1268 17.4627 14.135 17.4877 14.1471C17.5378 14.1713 17.6063 14.2112 17.6775 14.2729C17.8183 14.3948 17.9739 14.6053 18.0153 14.9617L18.214 14.9387ZM16.7627 20.3969H18.0617V20.1969H16.7627V20.3969ZM18.4805 17.0223C18.3418 18.3854 17.6758 19.5022 16.7035 20.2163L16.8219 20.3775C17.8407 19.6293 18.5352 18.4608 18.6795 17.0426L18.4805 17.0223ZM19.177 14.832C19.2616 15.5608 19.0946 16.3504 18.5078 16.9633L18.6522 17.1016C19.2891 16.4365 19.4655 15.583 19.3757 14.809L19.177 14.832ZM18.9273 14.0122C19.0492 14.2416 19.14 14.5138 19.177 14.8321L19.3757 14.809C19.3358 14.4659 19.2375 14.1697 19.1039 13.9184L18.9273 14.0122ZM20.6219 13.6661C19.8271 13.6661 19.3069 13.768 18.9853 13.87L19.0458 14.0606C19.3447 13.9658 19.844 13.8661 20.6219 13.8661V13.6661ZM22.7078 14.3599C22.1856 13.8795 21.4166 13.6661 20.6219 13.6661V13.8661C21.3862 13.8661 22.0994 14.0721 22.5724 14.5071L22.7078 14.3599ZM23.3855 16.8873C23.5548 15.5982 23.211 14.8228 22.7078 14.3599L22.5724 14.5071C23.0175 14.9166 23.35 15.6216 23.1872 16.8613L23.3855 16.8873ZM23.3408 17.2275L23.3855 16.8873L23.1872 16.8613L23.1425 17.2014L23.3408 17.2275ZM23.5816 17.3062L23.2941 17.1293L23.1893 17.2996L23.4767 17.4765L23.5816 17.3062ZM23.5904 17.3121L23.5856 17.3088L23.4727 17.4739L23.4775 17.4771L23.5904 17.3121ZM23.636 17.3467C23.6161 17.3305 23.6005 17.3191 23.5913 17.3127L23.4766 17.4765C23.4822 17.4805 23.494 17.489 23.5098 17.5019L23.636 17.3467ZM23.7866 17.4965C23.7316 17.4299 23.6764 17.3796 23.636 17.3467L23.5098 17.5019C23.5422 17.5282 23.5875 17.5694 23.6324 17.6239L23.7866 17.4965ZM23.9946 18.0496C23.9946 17.813 23.8968 17.6299 23.7866 17.4965L23.6324 17.6239C23.7223 17.7327 23.7946 17.8722 23.7946 18.0496H23.9946ZM23.8102 18.7395C23.9221 18.5636 23.9946 18.3459 23.9946 18.0496H23.7946C23.7946 18.31 23.7318 18.49 23.6414 18.6322L23.8102 18.7395ZM23.2942 19.2347C23.5233 19.0803 23.6948 18.921 23.8102 18.7395L23.6414 18.6322C23.5459 18.7826 23.3981 18.9235 23.1825 19.0689L23.2942 19.2347ZM23.0607 19.3921L23.2942 19.2347L23.1825 19.0689L22.9489 19.2263L23.0607 19.3921ZM23.1048 19.5909V19.3092H22.9048V19.5909H23.1048ZM22.6337 21.2431C22.9225 20.8749 23.1048 20.3155 23.1048 19.5909H22.9048C22.9048 20.2844 22.7302 20.7961 22.4764 21.1196L22.6337 21.2431ZM21.6591 21.7937C22.0761 21.7393 22.3989 21.5424 22.6337 21.2431L22.4764 21.1196C22.273 21.3789 21.9969 21.5479 21.6332 21.5954L21.6591 21.7937ZM18.0617 20.3969C19.4182 20.3969 20.6531 20.9167 21.5785 21.7681L21.7139 21.6209C20.7531 20.7368 19.4703 20.1969 18.0617 20.1969V20.3969ZM14.0018 23.7275C12.5374 23.7275 11.3116 22.7044 11.0008 21.3338L10.8058 21.378C11.1367 22.8377 12.4419 23.9275 14.0018 23.9275V23.7275ZM17.0029 21.3338C16.6921 22.7044 15.4663 23.7275 14.0018 23.7275V23.9275C15.5618 23.9275 16.8669 22.8377 17.1979 21.378L17.0029 21.3338ZM10.9033 21.4559H17.1004V21.2559H10.9033V21.4559ZM24.468 16.7238C24.512 16.1952 24.482 15.7164 24.3864 15.2873L24.1912 15.3308C24.2819 15.7377 24.3112 16.196 24.2687 16.7072L24.468 16.7238ZM24.6031 16.822C24.5467 16.7537 24.4904 16.6943 24.4378 16.6435L24.2989 16.7875C24.3467 16.8336 24.3978 16.8875 24.4489 16.9494L24.6031 16.822ZM25.0537 18.0496C25.0537 17.4975 24.8194 17.0838 24.6031 16.822L24.4489 16.9494C24.6453 17.187 24.8537 17.5571 24.8537 18.0496H25.0537ZM24.704 19.3077C24.9295 18.9529 25.0537 18.5362 25.0537 18.0496H24.8537C24.8537 18.5003 24.7393 18.8794 24.5352 19.2004L24.704 19.3077ZM24.1186 19.9434C24.3358 19.7711 24.5409 19.5642 24.704 19.3077L24.5352 19.2004C24.3869 19.4337 24.1986 19.6247 23.9943 19.7867L24.1186 19.9434ZM23.467 21.8967C23.8912 21.3559 24.114 20.6492 24.1563 19.8704L23.9566 19.8596C23.9159 20.6084 23.7024 21.2725 23.3096 21.7733L23.467 21.8967ZM22.948 22.3961C23.1416 22.2573 23.3155 22.0899 23.467 21.8967L23.3096 21.7733C23.1694 21.952 23.0092 22.1061 22.8315 22.2336L22.948 22.3961ZM25.4081 23.2557C24.6806 22.7307 23.8291 22.3667 22.9059 22.2161L22.8737 22.4135C23.7655 22.559 24.5881 22.9106 25.2911 23.4178L25.4081 23.2557ZM26.0691 22.7931C25.8902 23.0342 25.6495 23.191 25.3349 23.2378L25.3644 23.4357C25.7349 23.3804 26.0214 23.193 26.2297 22.9124L26.0691 22.7931ZM26.4526 20.8165C26.4526 21.1457 26.4133 21.5668 26.3439 21.9456C26.3092 22.1349 26.2673 22.3118 26.2198 22.4604C26.1716 22.6109 26.1201 22.7246 26.0691 22.7931L26.2297 22.9124C26.3004 22.8171 26.36 22.6784 26.4103 22.5213C26.4611 22.3623 26.5049 22.1766 26.5406 21.9817C26.6119 21.5922 26.6526 21.159 26.6526 20.8165H26.4526ZM26.4526 20.5496V20.8165H26.6526V20.5496H26.4526ZM26.704 20.319L26.4946 20.4682L26.6106 20.6311L26.82 20.4819L26.704 20.319ZM27.1133 19.9075C27.0281 20.0492 26.8964 20.182 26.704 20.319L26.82 20.4819C27.0262 20.3351 27.1807 20.1834 27.2847 20.0106L27.1133 19.9075ZM27.2503 19.3563C27.2503 19.6031 27.1939 19.7735 27.1133 19.9075L27.2847 20.0106C27.3853 19.8433 27.4503 19.6369 27.4503 19.3563H27.2503ZM27.1056 18.9542C27.1854 19.0564 27.2503 19.1881 27.2503 19.3563H27.4503C27.4503 19.1322 27.3626 18.9583 27.2631 18.8311L27.1056 18.9542ZM26.9967 18.8397C27.0253 18.8644 27.0656 18.9031 27.1056 18.9542L27.2631 18.8311C27.2135 18.7676 27.1636 18.7195 27.1271 18.6881L26.9967 18.8397ZM26.9675 18.8162C26.9723 18.8198 26.9827 18.8277 26.9967 18.8397L27.1271 18.6881C27.109 18.6726 27.0949 18.6616 27.0864 18.6554L26.9675 18.8162ZM26.964 18.8137L26.9683 18.8168L27.0856 18.6548L27.0813 18.6517L26.964 18.8137ZM26.7104 18.6489L26.9681 18.8165L27.0772 18.6488L26.8195 18.4813L26.7104 18.6489ZM26.7058 18.2305L26.6657 18.5528L26.8642 18.5774L26.9043 18.2552L26.7058 18.2305ZM26.156 16.0022C26.5532 16.3884 26.8518 17.0555 26.7058 18.2305L26.9043 18.2552C27.056 17.0345 26.7483 16.2991 26.2954 15.8588L26.156 16.0022ZM24.4165 15.3982C25.0987 15.3982 25.7344 15.5924 26.156 16.0022L26.2954 15.8588C25.8248 15.4013 25.1318 15.1982 24.4165 15.1982V15.3982ZM24.3115 15.4064C24.3305 15.402 24.3628 15.3982 24.4165 15.3982V15.1982C24.3559 15.1982 24.3064 15.2022 24.2661 15.2116L24.3115 15.4064Z" fill="#1F2E64" mask="url(#path-1-outside-1)"/>
</svg>
