<svg width="32" height="32" viewBox="0 0 32 32" fill="none" xmlns="http://www.w3.org/2000/svg">
<path fill-rule="evenodd" clip-rule="evenodd" d="M2.2 2.25001H29.8V18.8042H2.2V2.25001ZM1 18.839V1H31V18.839V20.0543V25.3255H19.4889L20.4696 29.7847H22.7111V31.0009H9.29007V29.7847H11.5308L12.5115 25.3255H1V20.0543V18.839ZM2.2 20.089H29.8V24.0755H2.2V20.089ZM13.7353 25.3586L12.7694 29.7506H19.231L18.2651 25.3586H13.7353ZM15.9874 22.062C15.9846 22.069 15.9833 22.0765 15.9833 22.0814C15.9833 22.0863 15.9846 22.0938 15.9874 22.1008C15.99 22.1069 15.9927 22.1102 15.994 22.1115C15.9953 22.1129 15.9966 22.1138 15.9982 22.1145L15.9991 22.1148L16 22.1145L16.0008 22.1141C16.0021 22.1134 16.0032 22.1126 16.0042 22.1115C16.0055 22.1102 16.0082 22.1069 16.0108 22.1008C16.0137 22.0938 16.0149 22.0863 16.0149 22.0814C16.0149 22.0765 16.0137 22.069 16.0108 22.062C16.0082 22.0559 16.0055 22.0526 16.0042 22.0513L16.0025 22.0497L16.002 22.0494L16 22.0483L15.9991 22.048L15.9982 22.0483C15.9966 22.049 15.9953 22.0499 15.994 22.0513C15.9927 22.0526 15.99 22.0559 15.9874 22.062ZM15.9991 23.2976C16.6531 23.2976 17.1833 22.7531 17.1833 22.0814C17.1833 21.4097 16.6531 20.8652 15.9991 20.8652C15.3451 20.8652 14.8149 21.4097 14.8149 22.0814C14.8149 22.7531 15.3451 23.2976 15.9991 23.2976ZM21.8725 11.7781H24.2409V10.5281H21.8725V11.7781ZM23.1488 16.0845L21.0977 14.8682L21.7041 13.7896L23.7552 15.0058L23.1488 16.0845ZM21.0977 7.30502L23.1488 6.08879L23.7552 7.16746L21.7041 8.38369L21.0977 7.30502ZM17.9978 13.0384V15.8537L12.115 13.0485H11.3758V14.6784C11.3758 15.4469 10.7777 16.0699 10.04 16.0699C9.3022 16.0699 8.70413 15.4469 8.70413 14.6784V12.6464C8.03987 12.1985 7.6003 11.4198 7.6003 10.5342C7.6003 9.1456 8.68095 8.01991 10.014 8.01991H12.4428L17.9978 4.96358V8.02824C19.2335 8.13803 20.2036 9.21767 20.2036 10.5333C20.2036 11.849 19.2335 12.9286 17.9978 13.0384ZM16.7978 13.0476V13.9067L12.8473 12.023V9.21104L16.7978 7.03749V8.01904H16.7962L16.7962 13.0476H16.7978ZM17.9978 11.7791C18.5691 11.6764 19.0036 11.1578 19.0036 10.5333C19.0036 9.90892 18.5691 9.39022 17.9978 9.28753V11.7791ZM10.014 13.0485C9.98654 13.0485 9.95918 13.048 9.93194 13.0471H9.90413V14.6784C9.90413 14.7566 9.96494 14.8199 10.04 14.8199C10.115 14.8199 10.1758 14.7566 10.1758 14.6784V13.0485H10.014ZM11.6471 11.7985H11.3758V11.7971H9.95584C9.31254 11.7655 8.8003 11.2121 8.8003 10.5342C8.8003 9.83596 9.34369 9.26992 10.014 9.26992H11.6471V11.7985Z" fill="#1F2E64"/>
</svg>
