<svg width="32" height="32" viewBox="0 0 32 32" fill="none" xmlns="http://www.w3.org/2000/svg">
<path fill-rule="evenodd" clip-rule="evenodd" d="M31.984 16.7226L30.0659 16.6373C30.0753 16.4262 30.08 16.2137 30.08 16C30.08 15.7863 30.0753 15.5738 30.0659 15.3627L31.984 15.2774C31.9946 15.517 32 15.7578 32 16C32 16.2421 31.9946 16.483 31.984 16.7226ZM30.2062 8.63185L28.5026 9.51727C28.3067 9.14049 28.0943 8.77358 27.8663 8.41751L29.483 7.38195C29.7422 7.78651 29.9836 8.20351 30.2062 8.63185ZM24.6181 2.51695L23.5825 4.13374C23.2264 3.90568 22.8595 3.69327 22.4827 3.49745L23.3681 1.7938C23.7965 2.01641 24.2135 2.25783 24.6181 2.51695ZM16.7226 0.0160249L16.6373 1.93413C16.4262 1.92475 16.2137 1.92 16 1.92C15.7863 1.92 15.5738 1.92475 15.3627 1.93413L15.2774 0.0160248C15.517 0.00537926 15.7578 0 16 0C16.2421 0 16.483 0.00537928 16.7226 0.0160249ZM8.63185 1.79379L9.51727 3.49745C9.14049 3.69327 8.77358 3.90568 8.41751 4.13374L7.38195 2.51695C7.78651 2.25783 8.20351 2.01641 8.63185 1.79379ZM2.51695 7.38194L4.13374 8.41751C3.90568 8.77357 3.69327 9.14048 3.49745 9.51726L1.7938 8.63185C2.01641 8.20351 2.25783 7.78651 2.51695 7.38194ZM0.0160249 15.2774C0.00537928 15.517 0 15.7578 0 16C0 16.2421 0.00537926 16.483 0.0160248 16.7226L1.93413 16.6373C1.92475 16.4262 1.92 16.2137 1.92 16C1.92 15.7863 1.92475 15.5738 1.93413 15.3627L0.0160249 15.2774ZM6.3325 14.7696C6.3325 9.58527 10.5353 5.3825 15.7197 5.3825H16.2801C21.4645 5.3825 25.6672 9.58527 25.6672 14.7696C25.6672 17.4806 24.5197 19.9216 22.6802 21.6368C21.8035 22.4543 20.9517 23.5229 20.5844 24.8758L19.7701 27.875H12.2296L11.4153 24.8758C11.048 23.5229 10.1962 22.4543 9.31956 21.6368C7.48002 19.9216 6.3325 17.4806 6.3325 14.7696ZM12.5771 29.155L13.0021 30.7202H18.9976L19.4226 29.155H12.5771ZM15.7197 4.1025C9.82835 4.1025 5.0525 8.87834 5.0525 14.7696C5.0525 17.8502 6.35832 20.6258 8.44663 22.573C9.23068 23.3041 9.89912 24.1766 10.18 25.2111L11.895 31.5279C11.9707 31.8067 12.2238 32.0002 12.5127 32.0002H19.4871C19.7759 32.0002 20.029 31.8067 20.1047 31.5279L21.8197 25.2112C22.1006 24.1766 22.769 23.3041 23.5531 22.573C25.6414 20.6258 26.9472 17.8502 26.9472 14.7696C26.9472 8.87834 22.1714 4.1025 16.2801 4.1025H15.7197ZM16 11.5053L17.28 13.7053V14.08H14.72V13.7053L16 11.5053ZM14.72 15.36L17.28 15.36V19.0537H14.72V15.36ZM14.72 20.3337V21.76H17.28V20.3337H14.72ZM18.56 13.36L16 8.96L13.44 13.36V23.04H18.56V13.36Z" fill="#1F2E64"/>
</svg>
