<svg width="32" height="32" viewBox="0 0 32 32" fill="none" xmlns="http://www.w3.org/2000/svg">
<path fill-rule="evenodd" clip-rule="evenodd" d="M20.4719 6.61443C20.5473 7.27809 20.3557 7.9046 19.736 8.32294C19.736 10.7011 18.0628 12.2648 15.9987 12.2648C13.9347 12.2648 12.2614 10.701 12.2614 8.32294C11.6417 7.90466 11.4501 7.27809 11.5255 6.61443C11.5396 6.49096 11.565 6.38156 11.5982 6.28473L19.7797 5.14823C19.77 5.28748 19.7555 5.43131 19.736 5.57985C19.736 5.57985 20.375 5.76192 20.4719 6.61443ZM11.5982 6.28467L11.5982 6.28473L10.2619 6.47036C10.1669 7.30569 10.3538 8.21892 11.0194 8.92919C11.2252 10.997 12.4797 12.5716 14.2012 13.2178H11.4062C7.94692 13.2178 5.14258 15.9448 5.14258 19.3088V21.0104H6.39531V19.3088C6.39531 16.6802 8.53557 14.5378 11.2139 14.4395C11.5202 16.7947 13.5459 18.6142 15.9992 18.6142C18.4525 18.6142 20.4782 16.7947 20.7845 14.4395C23.4632 14.5374 25.6039 16.68 25.6039 19.3088V21.0104H26.8566V19.3088C26.8566 15.9448 24.0523 13.2178 20.593 13.2178H17.7963C19.5177 12.5716 20.7723 10.9971 20.9781 8.92915C21.6436 8.21886 21.8304 7.30568 21.7355 6.47038L21.7355 6.47028C21.6603 5.80864 21.3872 5.31446 21.0619 4.97012C21.1154 3.36868 20.6304 2.09587 19.6556 1.22014C18.594 0.266465 17.1836 0 15.9987 0C14.8727 0 13.4598 0.186407 12.3851 1.12281C11.3864 1.99291 10.9162 3.29046 10.9494 4.95556C10.618 5.30047 10.3382 5.79926 10.2619 6.47029L11.5982 6.28467ZM11.5982 6.28467L19.7797 5.14823C19.9891 2.14192 17.9714 1.27394 15.9987 1.27394C13.9347 1.27394 11.8979 1.99884 12.2614 5.57985C12.2614 5.57985 11.7941 5.71299 11.5982 6.28467ZM12.4333 14.436C12.7277 16.1282 14.2122 17.4153 15.9992 17.4153C17.7861 17.4153 19.2706 16.1282 19.5651 14.436H12.4333ZM17.6896 25.0664L16.0004 21.5371L14.3111 25.0664L10.2861 25.5263L13.2625 28.1788L12.4748 31.9988L16.0004 30.097L19.5259 31.9988L18.7383 28.1788L21.7146 25.5263L17.6896 25.0664ZM15.0763 26.1023L16.0004 24.1717L16.9244 26.1023L19.0951 26.3503L17.4908 27.7801L17.9191 29.8575L16.0004 28.8224L14.0816 29.8575L14.5099 27.7801L12.9056 26.3503L15.0763 26.1023ZM28.7788 26.1682L27.4288 23.3837L26.0788 26.1682L22.8574 26.5315L25.2396 28.6274L24.6098 31.643L27.4288 30.1418L30.2478 31.643L29.618 28.6274L32.0002 26.5315L28.7788 26.1682ZM26.8685 27.2236L27.4288 26.0679L27.9891 27.2236L29.2968 27.3711L28.3306 28.2212L28.5896 29.4614L27.4288 28.8432L26.268 29.4614L26.527 28.2212L25.5608 27.3711L26.8685 27.2236ZM4.57138 23.3837L5.92137 26.1682L9.14276 26.5315L6.76055 28.6274L7.39039 31.643L4.57138 30.1418L1.75237 31.643L2.38221 28.6274L0 26.5315L3.22139 26.1682L4.57138 23.3837ZM4.57138 26.0679L4.01107 27.2236L2.70333 27.3711L3.66962 28.2212L3.4106 29.4614L4.57138 28.8432L5.73215 29.4614L5.47313 28.2212L6.43943 27.3711L5.13169 27.2236L4.57138 26.0679Z" fill="#1F2E64"/>
</svg>
