<?xml version="1.0" encoding="utf-8"?>
<!-- Generator: Adobe Illustrator 23.0.2, SVG Export Plug-In . SVG Version: 6.00 Build 0)  -->
<svg version="1.1" id="Layer_1" xmlns="http://www.w3.org/2000/svg" xmlns:xlink="http://www.w3.org/1999/xlink" x="0px" y="0px"
	 viewBox="0 0 223 128.2" style="enable-background:new 0 0 223 128.2;" xml:space="preserve">
<g>
	<g>
		<path d="M112.5,89.7c1.4-1.6,2.4-3.1,3.6-4.3c26.4-26.4,52.8-52.9,79.3-79.3c4.5-4.5,9.9-6.2,16.1-4.4c6.1,1.8,9.8,5.9,11.2,12
			c1.3,5.8-0.5,10.8-4.7,15c-10.1,10.1-20.2,20.1-30.2,30.2c-20.9,20.9-41.7,41.7-62.6,62.6c-8.9,8.9-17.5,8.9-26.4,0
			c-31-31-62.1-62-93.1-93.1C-2.8,20-1.6,7.5,8.1,2.1C14.6-1.6,22.2-0.4,28,5.4c12.5,12.4,24.9,24.9,37.4,37.4
			c14.7,14.7,29.3,29.4,44,44.1C110.1,87.6,111,88.3,112.5,89.7z"/>
	</g>
</g>
</svg>
