<svg xmlns="http://www.w3.org/2000/svg" width="191" height="318" viewBox="0 0 191 318" fill="none"><g style="mix-blend-mode:multiply"><ellipse rx="11.0941" ry="11.0941" transform="matrix(0.694225 -0.719758 -0.694225 -0.719758 15.4043 255.932)" fill="#253475"></ellipse><ellipse rx="13.8676" ry="13.8677" transform="matrix(0.694227 -0.719756 -0.694227 -0.719756 55.3359 298.037)" fill="#253475"></ellipse><ellipse rx="11.0941" ry="11.0941" transform="matrix(0.694236 -0.719747 -0.694236 -0.719747 56.248 214.997)" fill="#253475"></ellipse><ellipse rx="13.8676" ry="13.8677" transform="matrix(0.694236 -0.719748 -0.694236 -0.719748 96.1816 256.399)" fill="#253475"></ellipse><ellipse rx="8.32059" ry="8.32059" transform="matrix(0.69423 -0.719753 -0.69423 -0.719754 16.3184 173.601)" fill="#253475"></ellipse><ellipse rx="11.0941" ry="11.0941" transform="matrix(0.694235 -0.719748 -0.694235 -0.719749 95.7324 174.065)" fill="#253475"></ellipse><ellipse rx="8.32059" ry="8.32059" transform="matrix(0.694245 -0.719739 -0.694245 -0.719739 55.8027 132.663)" fill="#253475"></ellipse><ellipse rx="5.54739" ry="5.54739" transform="matrix(-0.694257 0.719728 0.694257 0.719728 15.8711 91.2665)" fill="#253475"></ellipse><ellipse rx="8.32059" ry="8.32059" transform="matrix(0.694237 -0.719746 -0.694237 -0.719746 95.9668 91.0226)" fill="#253475"></ellipse><ellipse rx="5.5474" ry="5.54741" transform="matrix(-0.694234 0.719749 0.694234 0.719749 56.0352 49.6261)" fill="#253475"></ellipse><ellipse rx="11.0941" ry="11.0941" transform="matrix(-0.694236 -0.719747 0.694236 -0.719747 175.596 255.932)" fill="#253475"></ellipse><ellipse rx="13.8676" ry="13.8676" transform="matrix(-0.694227 -0.719756 0.694227 -0.719756 135.666 298.037)" fill="#253475"></ellipse><ellipse rx="11.0941" ry="11.0941" transform="matrix(-0.694235 -0.719749 0.694235 -0.719748 134.752 214.997)" fill="#253475"></ellipse><ellipse rx="8.32059" ry="8.32059" transform="matrix(-0.694243 -0.719741 0.694243 -0.719741 174.682 173.601)" fill="#253475"></ellipse><ellipse rx="8.32059" ry="8.32058" transform="matrix(-0.694217 -0.719766 0.694217 -0.719766 135.197 132.663)" fill="#253475"></ellipse><ellipse rx="5.54739" ry="5.54739" transform="matrix(0.694254 0.71973 -0.694254 0.71973 175.129 91.2665)" fill="#253475"></ellipse><ellipse rx="5.54741" ry="5.54741" transform="matrix(0.694248 0.719736 -0.694248 0.719735 134.963 49.626)" fill="#253475"></ellipse><ellipse rx="5.5474" ry="5.54741" transform="matrix(-0.69387 0.7201 0.69387 0.7201 96.1992 7.98937)" fill="#253475"></ellipse></g></svg>