<svg xmlns="http://www.w3.org/2000/svg" width="210" height="421" viewBox="0 0 210 421" fill="none"><g style="mix-blend-mode:multiply"><ellipse rx="14.7071" ry="14.7071" transform="matrix(0.694956 -0.719052 -0.694956 -0.719052 20.4414 359.893)" fill="#EFF4F5"></ellipse><ellipse rx="17.9467" ry="17.3453" transform="matrix(-4.68321e-09 -1 -1 5.16991e-08 62.8773 403.053)" fill="#EFF4F5"></ellipse><ellipse rx="11.7657" ry="11.7657" transform="matrix(0.694955 -0.719053 -0.694955 -0.719053 19.9668 271.164)" fill="#EFF4F5"></ellipse><ellipse rx="14.7071" ry="14.7071" transform="matrix(0.694957 -0.719051 -0.694957 -0.719051 62.3594 315.775)" fill="#EFF4F5"></ellipse><ellipse rx="17.9467" ry="17.3453" transform="matrix(-4.68404e-09 -1 -1 5.16985e-08 104.795 358.932)" fill="#EFF4F5"></ellipse><ellipse rx="11.7657" ry="11.7657" transform="matrix(0.694957 -0.719052 -0.694957 -0.719052 63.3301 227.793)" fill="#EFF4F5"></ellipse><ellipse rx="14.7071" ry="14.7071" transform="matrix(0.694952 -0.719056 -0.694952 -0.719056 105.723 271.658)" fill="#EFF4F5"></ellipse><ellipse rx="8.82428" ry="8.82428" transform="matrix(0.694954 -0.719055 -0.694953 -0.719055 20.9375 183.933)" fill="#EFF4F5"></ellipse><ellipse rx="11.7657" ry="11.7657" transform="matrix(0.694952 -0.719056 -0.694952 -0.719056 105.248 184.425)" fill="#EFF4F5"></ellipse><ellipse rx="8.82428" ry="8.82428" transform="matrix(0.694958 -0.71905 -0.694958 -0.71905 62.8555 140.562)" fill="#EFF4F5"></ellipse><ellipse rx="5.88284" ry="5.88285" transform="matrix(-0.694955 0.719054 0.694955 0.719054 20.4629 96.6965)" fill="#EFF4F5"></ellipse><ellipse rx="8.82428" ry="8.82428" transform="matrix(0.694958 -0.71905 -0.694958 -0.71905 105.496 96.4407)" fill="#EFF4F5"></ellipse><ellipse rx="5.88286" ry="5.88286" transform="matrix(-0.694955 0.719054 0.694955 0.719054 63.1035 52.5793)" fill="#EFF4F5"></ellipse><ellipse rx="14.7071" ry="14.7071" transform="matrix(-0.694952 -0.719056 0.694952 -0.719056 189.559 359.892)" fill="#EFF4F5"></ellipse><ellipse cx="147.123" cy="403.053" rx="17.9467" ry="17.3453" transform="rotate(-90 147.123 403.053)" fill="#EFF4F5"></ellipse><ellipse rx="11.7657" ry="11.7657" transform="matrix(-0.694959 -0.719049 0.694959 -0.719049 190.033 271.164)" fill="#EFF4F5"></ellipse><ellipse rx="14.7071" ry="14.7071" transform="matrix(-0.694952 -0.719056 0.694952 -0.719056 147.641 315.775)" fill="#EFF4F5"></ellipse><ellipse rx="11.7657" ry="11.7657" transform="matrix(-0.694951 -0.719057 0.694951 -0.719057 146.67 227.792)" fill="#EFF4F5"></ellipse><ellipse rx="8.82428" ry="8.82428" transform="matrix(-0.694952 -0.719056 0.694952 -0.719056 189.062 183.933)" fill="#EFF4F5"></ellipse><ellipse rx="8.82428" ry="8.82428" transform="matrix(-0.694951 -0.719057 0.694951 -0.719057 147.145 140.562)" fill="#EFF4F5"></ellipse><ellipse rx="5.88284" ry="5.88284" transform="matrix(0.694955 0.719054 -0.694955 0.719054 189.537 96.6965)" fill="#EFF4F5"></ellipse><ellipse rx="5.88286" ry="5.88286" transform="matrix(0.694954 0.719054 -0.694955 0.719053 146.896 52.5793)" fill="#EFF4F5"></ellipse><ellipse rx="5.88286" ry="5.88286" transform="matrix(-0.695243 0.718775 0.695243 0.718775 105.744 8.45691)" fill="#EFF4F5"></ellipse></g></svg>