<svg width="32" height="32" viewBox="0 0 32 32" fill="none" xmlns="http://www.w3.org/2000/svg">
<path fill-rule="evenodd" clip-rule="evenodd" d="M19.8739 9.01559V6.80425C19.8739 4.75741 18.2255 3.09811 16.1921 3.09811C14.1587 3.09811 12.5103 4.75741 12.5103 6.80425V9.01559C12.5103 11.0624 14.1587 12.7217 16.1921 12.7217C18.2255 12.7217 19.8739 11.0624 19.8739 9.01559ZM16.1921 2C13.5562 2 11.4194 4.15094 11.4194 6.80425V7.19357C11.3585 7.17718 11.2945 7.16844 11.2285 7.16844C10.8219 7.16844 10.4922 7.5003 10.4922 7.90967V10.5756C10.4922 10.985 10.8219 11.3168 11.2285 11.3168C11.483 11.3168 11.7072 11.187 11.8395 10.9895C12.3329 12.09 13.226 12.9699 14.3326 13.4416H13.0522C10.0397 13.4416 7.59766 15.8998 7.59766 18.9321V23.5631H7.19694C5.43132 23.5631 4 25.0039 4 26.7811C4 28.5584 5.43132 29.9992 7.19694 29.9992H19.0505H24.8031C26.5687 29.9992 28 28.5584 28 26.7811C28 25.0039 26.5687 23.5631 24.8031 23.5631H24.3977V18.9321C24.3977 15.8998 21.9556 13.4416 18.9431 13.4416H18.0516C19.1584 12.9698 20.0517 12.0897 20.5449 10.9889C20.6772 11.1867 20.9016 11.3168 21.1563 11.3168C21.563 11.3168 21.8926 10.985 21.8926 10.5756V7.90967C21.8926 7.5003 21.563 7.16844 21.1563 7.16844C21.0901 7.16844 21.0259 7.17724 20.9648 7.19374V6.80425C20.9648 4.15094 18.828 2 16.1921 2ZM24.8031 28.9011H19.0505C17.7179 28.9011 16.5414 28.0252 16.5414 26.695C16.5414 25.8739 16.0566 25.1698 15.4847 24.6612H24.8031C25.9662 24.6612 26.9091 25.6103 26.9091 26.7811C26.9091 27.952 25.9662 28.9011 24.8031 28.9011ZM14.5687 25.3245C14.0101 24.8983 13.3596 24.6612 12.9414 24.6612H7.19694C6.03381 24.6612 5.09091 25.6103 5.09091 26.7811C5.09091 27.952 6.03381 28.9011 7.19694 28.9011H16.3359C15.8001 28.3556 15.4505 27.6144 15.4505 26.695C15.4505 26.2595 15.1341 25.7561 14.5687 25.3245ZM18.9431 14.5397H13.0522C10.6422 14.5397 8.68857 16.5062 8.68857 18.9321V20.6635C14.9533 20.5522 19.1953 17.2246 20.9978 15.0561C20.3855 14.7265 19.686 14.5397 18.9431 14.5397ZM21.8901 15.6926C19.9378 18.0762 15.3874 21.6498 8.68857 21.7618V23.4007H23.3068V18.9321C23.3068 17.6497 22.7608 16.4957 21.8901 15.6926Z" fill="#1F2E64"/>
</svg>
