<svg xmlns="http://www.w3.org/2000/svg" width="32" height="32" viewBox="0 0 32 32" fill="none"><g clip-path="url(#clip0)"><path d="M16 0.000976562C7.16479 0.000976562 0 7.16577 0 16.001C0 24.8362 7.16479 32.001 16 32.001C24.8352 32.001 32 24.8362 32 16.001C32 7.16577 24.8352 0.000976562 16 0.000976562ZM11.3506 24.1885H7.45386V12.4651H11.3506V24.1885ZM9.40234 10.8643H9.37695C8.06934 10.8643 7.22363 9.96411 7.22363 8.83911C7.22363 7.68872 8.09521 6.81348 9.42822 6.81348C10.7612 6.81348 11.5815 7.68872 11.6069 8.83911C11.6069 9.96411 10.7612 10.8643 9.40234 10.8643ZM25.4014 24.1885H21.5051V17.9167C21.5051 16.3406 20.9409 15.2656 19.531 15.2656C18.4546 15.2656 17.8135 15.9907 17.5317 16.6907C17.4287 16.9412 17.4036 17.2913 17.4036 17.6416V24.1885H13.5071C13.5071 24.1885 13.5581 13.5649 13.5071 12.4651H17.4036V14.125C17.9214 13.3262 18.8479 12.1899 20.9153 12.1899C23.479 12.1899 25.4014 13.8655 25.4014 17.4663V24.1885Z" fill="#C8C9D1"></path></g><defs><clipPath id="clip0"><rect width="32" height="32" fill="white" transform="translate(0 0.000976562)"></rect></clipPath></defs></svg>