<svg width="222" height="222" viewBox="0 0 222 222" fill="none" xmlns="http://www.w3.org/2000/svg">
<circle cx="111" cy="61" r="50" stroke="#C8C9D1" stroke-width="2" stroke-dasharray="4 6"/>
<g filter="url(#filter0_d)">
<rect x="72" y="22" width="78" height="78" rx="39" fill="white"/>
<rect x="72.5" y="22.5" width="77" height="77" rx="38.5" stroke="#EAEBF0"/>
</g>
<g clip-path="url(#clip0)">
<path d="M105 60.5C105 58.0147 107.015 56 109.5 56H113.5C115.985 56 118 58.0147 118 60.5V60.5C118 61.3284 117.328 62 116.5 62H106.5C105.672 62 105 61.3284 105 60.5V60.5Z" stroke="#CB202D" stroke-width="1.6" stroke-linejoin="round"/>
<rect x="109" y="47" width="6" height="6" rx="3" stroke="#CB202D" stroke-width="1.6"/>
<line x1="111.8" y1="64.8" x2="111.8" y2="66.2" stroke="#CB202D" stroke-width="1.6" stroke-linecap="round"/>
<path d="M102 71V70C102 68.3431 103.343 67 105 67H118C119.657 67 121 68.3431 121 70V71" stroke="#CB202D" stroke-width="1.6"/>
<rect x="99" y="70" width="6" height="4" rx="1" stroke="#CB202D" stroke-width="1.6"/>
<rect x="118" y="70" width="6" height="4" rx="1" stroke="#CB202D" stroke-width="1.6"/>
</g>
<defs>
<filter id="filter0_d" x="0" y="0" width="222" height="222" filterUnits="userSpaceOnUse" color-interpolation-filters="sRGB">
<feFlood flood-opacity="0" result="BackgroundImageFix"/>
<feColorMatrix in="SourceAlpha" type="matrix" values="0 0 0 0 0 0 0 0 0 0 0 0 0 0 0 0 0 0 127 0"/>
<feOffset dy="50"/>
<feGaussianBlur stdDeviation="36"/>
<feColorMatrix type="matrix" values="0 0 0 0 0.423529 0 0 0 0 0.427451 0 0 0 0 0.435294 0 0 0 0.1 0"/>
<feBlend mode="normal" in2="BackgroundImageFix" result="effect1_dropShadow"/>
<feBlend mode="normal" in="SourceGraphic" in2="effect1_dropShadow" result="shape"/>
</filter>
<clipPath id="clip0">
<rect width="30" height="30" fill="white" transform="translate(96 46)"/>
</clipPath>
</defs>
</svg>
