<svg width="32" height="32" viewBox="0 0 32 32" fill="none" xmlns="http://www.w3.org/2000/svg">
<path d="M18.337 3.29125C19.8815 3.61008 21.3173 4.21982 22.5825 5.05893L24.2462 3.41599L27.5491 6.67761L25.8862 8.31972C26.7375 9.57017 27.3556 10.9891 27.6784 12.5151H30V17.1227H26.7282V15.9851H28.843V13.6527H26.6967C26.4455 11.6053 25.6135 9.7347 24.3683 8.20635L25.9163 6.67761L24.2462 5.02833L22.6984 6.55678C21.1501 5.32574 19.2547 4.50324 17.18 4.25506V2.13762H14.8181V4.22397C12.7022 4.42026 10.7618 5.21249 9.17082 6.42894L7.753 5.02883L6.08287 6.67811L7.46925 8.04717C6.15071 9.60401 5.26858 11.5337 5.0086 13.6527H3.15702V15.9851H4.97706V17.1227H2V12.5151H4.02687C4.36455 10.9187 5.02545 9.43949 5.93838 8.14777L4.45013 6.67811L7.753 3.41648L9.29967 4.94384C10.6019 4.11245 12.0775 3.52116 13.6611 3.23453V1H18.337V3.29125Z" fill="#1F2E64"/>
<path d="M21.8075 14.2443C21.8075 11.0708 19.2027 8.50679 16.0003 8.50679C12.7979 8.50679 10.193 11.0708 10.193 14.2443H9.00026C9.00026 10.4282 12.1343 7.33456 16.0003 7.33456C19.8663 7.33456 23.0003 10.4282 23.0003 14.2443H21.8075Z" fill="#1F2E64"/>
<path fill-rule="evenodd" clip-rule="evenodd" d="M19.0595 19.0979C19.5664 18.7671 19.7231 18.2716 19.6614 17.7468C19.5822 17.0726 19.0595 16.9286 19.0595 16.9286C19.0755 16.8111 19.0873 16.6974 19.0952 16.5873C19.2665 14.2098 17.616 13.5234 16.0024 13.5234C14.3139 13.5234 12.6479 14.0966 12.9452 16.9286C12.9452 16.9286 12.563 17.0339 12.4027 17.486L11.3096 17.6328C11.3438 17.3419 11.4281 17.0919 11.5418 16.8805C11.2658 16.794 10.8123 16.7054 10.1128 16.7054C9.41919 16.7054 8.75976 16.8898 8.317 17.2922C7.8951 17.6756 7.59419 18.3263 7.74197 19.4379L7.78172 19.7369L7.52594 19.8924L7.52167 19.8953C7.51509 19.8999 7.50292 19.9086 7.487 19.9214C7.45465 19.9474 7.40993 19.9877 7.36545 20.0409C7.27644 20.1473 7.20076 20.2891 7.20076 20.4711C7.20076 20.7158 7.26096 20.8906 7.35093 21.0305C7.44479 21.1764 7.58684 21.3083 7.78468 21.4401L7.99251 21.5785V21.8261C7.99251 22.4494 8.1513 22.9203 8.39268 23.2243C8.62432 23.516 8.9569 23.7749 9.40601 23.7749C10.2557 22.9527 11.4192 22.4458 12.7025 22.4458H13.5445C12.6596 21.803 12.055 20.799 11.9292 19.5774C11.3848 19.0157 11.2319 18.2934 11.3096 17.6328L12.4027 17.486C12.3756 17.5626 12.3548 17.6491 12.3433 17.7468C12.2816 18.2716 12.4383 18.7671 12.9452 19.0979C12.9452 20.9786 14.3139 22.2152 16.0024 22.2152C17.6908 22.2152 19.0595 20.9786 19.0595 19.0979ZM18.4603 22.4458H19.6129C20.8437 22.4458 21.9642 22.9121 22.8035 23.6755C23.1513 23.6309 23.4181 23.4701 23.6132 23.2243C23.8546 22.9203 24.0134 22.4494 24.0134 21.8261V21.5785L24.2212 21.4401C24.4191 21.3083 24.5611 21.1764 24.655 21.0305C24.7449 20.8906 24.8051 20.7158 24.8051 20.4711C24.8051 20.2891 24.7295 20.1473 24.6405 20.0409C24.596 19.9877 24.5513 19.9474 24.5189 19.9214C24.503 19.9086 24.4908 19.8999 24.4842 19.8953L24.48 19.8924L24.2242 19.7369L24.2639 19.4379C24.4117 18.3263 24.1108 17.6756 23.6889 17.2922C23.2461 16.8898 22.5867 16.7054 21.8931 16.7054C21.1927 16.7054 20.739 16.7942 20.463 16.8808C20.5767 17.0922 20.6609 17.342 20.6951 17.6328C20.7727 18.2933 20.6199 19.0156 20.0755 19.5773C19.9497 20.799 19.3452 21.803 18.4603 22.4458ZM20.141 16.0052C20.5252 15.8798 21.0876 15.7744 21.8931 15.7744C22.7289 15.7744 23.6515 15.9932 24.3269 16.607C24.9771 17.1979 25.3283 18.0906 25.2267 19.2983C25.2713 19.3408 25.3191 19.3907 25.3669 19.4479C25.5505 19.6675 25.7475 20.012 25.7475 20.4711C25.7475 20.8831 25.6414 21.2329 25.4502 21.5299C25.3117 21.7453 25.1367 21.9202 24.9492 22.0671C24.9122 22.7385 24.7181 23.3411 24.3547 23.7989C24.2252 23.9619 24.0771 24.1029 23.9125 24.2197C26.3738 24.6176 28.2521 26.7285 28.2521 29.2729V30.9401H3.75131V29.2729C3.75131 26.7278 5.63061 24.6164 8.09296 24.2194C7.92853 24.1026 7.78055 23.9618 7.65125 23.7989C7.28776 23.3411 7.09371 22.7385 7.05673 22.0671C6.86923 21.9202 6.69422 21.7453 6.55568 21.5299C6.36455 21.2329 6.25843 20.8831 6.25843 20.4711C6.25843 20.012 6.45536 19.6675 6.63896 19.4479C6.6868 19.3907 6.73457 19.3408 6.77925 19.2983C6.67755 18.0906 7.02875 17.1979 7.67904 16.607C8.35442 15.9932 9.27699 15.7744 10.1128 15.7744C10.9276 15.7744 11.4936 15.8822 11.8781 16.0096C11.935 14.8957 12.3196 14.016 13.0464 13.4038C13.9255 12.6633 15.0813 12.5159 16.0024 12.5159C16.9716 12.5159 18.1253 12.7266 18.9937 13.4808C19.6961 14.0909 20.0877 14.9447 20.141 16.0052ZM23.8983 25.1633C24.172 25.7533 24.3246 26.4095 24.3246 27.1009V30.0091H27.3097V29.2729C27.3097 27.2394 25.8433 25.5442 23.8983 25.1633ZM8.44165 25.1112C6.3317 25.3523 4.69364 27.1236 4.69364 29.2729V30.0091H7.9908V27.1009C7.9908 26.3891 8.15253 25.7146 8.44165 25.1112ZM16.002 25.55C14.6563 25.55 13.5303 24.6211 13.2449 23.3768H18.7591C18.4737 24.6211 17.3477 25.55 16.002 25.55ZM23.3822 27.1009C23.3822 25.0793 21.7517 23.4338 19.7191 23.3783C19.4197 25.1393 17.8695 26.481 16.002 26.481C14.1419 26.481 12.5965 25.1498 12.2885 23.399C10.4015 23.6027 8.93314 25.1824 8.93314 27.1009V30.0095H23.3822V27.1009Z" fill="#1F2E64"/>
<path fill-rule="evenodd" clip-rule="evenodd" d="M11.3096 17.6328C11.3108 17.6225 11.3121 17.6122 11.3134 17.6021C11.3466 17.3484 11.4181 17.1265 11.5138 16.9346C11.5229 16.9163 11.5323 16.8983 11.5418 16.8805C11.5229 16.8746 11.5032 16.8686 11.4826 16.8627C11.2025 16.7823 10.7644 16.7054 10.1128 16.7054C9.41919 16.7054 8.75976 16.8898 8.317 17.2922C7.8951 17.6756 7.59419 18.3263 7.74197 19.4379L7.78172 19.7369L7.52594 19.8924L7.52167 19.8953C7.51509 19.8999 7.50292 19.9086 7.487 19.9214C7.45465 19.9474 7.40993 19.9877 7.36545 20.0409C7.27644 20.1473 7.20076 20.2891 7.20076 20.4711C7.20076 20.7158 7.26096 20.8906 7.35093 21.0305C7.44479 21.1764 7.58684 21.3083 7.78468 21.4401L7.99251 21.5785V21.8261C7.99251 22.4494 8.1513 22.9203 8.39268 23.2243C8.62432 23.516 8.9569 23.7749 9.40601 23.7749C10.2557 22.9527 11.4192 22.4458 12.7025 22.4458H13.5445C13.5175 22.4262 13.4907 22.4062 13.4642 22.3859C12.6231 21.7415 12.0512 20.7617 11.9292 19.5774C11.3848 19.0157 11.2319 18.2934 11.3096 17.6328ZM11.8708 19.6037C11.3229 19.0286 11.1706 18.2942 11.2491 17.6259C11.2808 17.3566 11.3544 17.1208 11.4547 16.9171C11.1805 16.8396 10.7511 16.7653 10.1128 16.7653C9.42848 16.7653 8.78607 16.9474 8.3583 17.3362C7.95402 17.7036 7.6565 18.3333 7.80232 19.4301L7.84718 19.7675L7.5592 19.9426L7.55669 19.9443C7.55118 19.9481 7.5402 19.956 7.52552 19.9678C7.49559 19.9918 7.45389 20.0294 7.41245 20.0789C7.32962 20.178 7.26163 20.3068 7.26163 20.4711C7.26163 20.7051 7.31889 20.8687 7.40236 20.9984C7.49022 21.135 7.62507 21.2615 7.8188 21.3905L8.05338 21.5467V21.8261C8.05338 22.4402 8.20987 22.8967 8.44065 23.1874C8.66214 23.4664 8.97107 23.7055 9.38148 23.7147C10.2405 22.8923 11.4117 22.3859 12.7025 22.3859H13.3664C12.5498 21.7349 11.9958 20.7665 11.8708 19.6037ZM12.9452 19.0979C12.4383 18.7671 12.2816 18.2716 12.3433 17.7468C12.3532 17.6624 12.3701 17.5862 12.392 17.5176C12.3955 17.5069 12.399 17.4964 12.4027 17.486C12.563 17.0339 12.9452 16.9286 12.9452 16.9286C12.6479 14.0966 14.3139 13.5234 16.0024 13.5234C17.616 13.5234 19.2665 14.2098 19.0952 16.5873C19.0873 16.6974 19.0755 16.8111 19.0595 16.9286C19.0595 16.9286 19.5822 17.0726 19.6614 17.7468C19.7231 18.2716 19.5664 18.7671 19.0595 19.0979C19.0595 20.9786 17.6908 22.2152 16.0024 22.2152C14.3139 22.2152 12.9452 20.9786 12.9452 19.0979ZM19.043 16.9862L18.9922 16.9722L18.9992 16.9207C19.015 16.8044 19.0267 16.6919 19.0345 16.583C19.119 15.4097 18.7543 14.6645 18.18 14.2104C17.6023 13.7536 16.8022 13.5832 16.0024 13.5832C15.1625 13.5832 14.3423 13.7264 13.7687 14.2095C13.1988 14.6896 12.8583 15.518 13.0057 16.9224L13.011 16.9727L12.9618 16.9862L12.9592 16.987C12.957 16.9877 12.9535 16.9888 12.9488 16.9904C12.9395 16.9937 12.9255 16.999 12.9079 17.0067C12.8728 17.0223 12.8238 17.0476 12.7699 17.0862C12.6625 17.1631 12.5356 17.2931 12.4602 17.5057C12.4346 17.578 12.4147 17.6602 12.4037 17.7537C12.3441 18.261 12.4949 18.7322 12.9788 19.048L13.0061 19.0658V19.0979C13.0061 20.9455 14.3476 22.1553 16.0024 22.1553C17.6572 22.1553 18.9986 20.9455 18.9986 19.0979V19.0658L19.0259 19.048C19.5098 18.7322 19.6606 18.261 19.601 17.7537C19.5632 17.4326 19.4209 17.2414 19.2908 17.1301C19.2253 17.074 19.1622 17.0377 19.1158 17.0155C19.0927 17.0044 19.0738 16.9969 19.061 16.9923C19.0546 16.99 19.0498 16.9884 19.0467 16.9874L19.043 16.9862ZM23.9525 21.5467L24.1871 21.3905C24.3808 21.2615 24.5157 21.135 24.6035 20.9984C24.687 20.8687 24.7443 20.7051 24.7443 20.4711C24.7443 20.3068 24.6763 20.178 24.5934 20.0789C24.552 20.0294 24.5103 19.9918 24.4804 19.9678C24.466 19.9562 24.4551 19.9484 24.4495 19.9445C24.4494 19.9444 24.4496 19.9445 24.4495 19.9445L24.4467 19.9426L24.1587 19.7675L24.2036 19.4301C24.3494 18.3333 24.0519 17.7036 23.6476 17.3362C23.2198 16.9474 22.5774 16.7653 21.8931 16.7653C21.254 16.7653 20.8243 16.8398 20.5501 16.9174C20.6504 17.1211 20.7239 17.3567 20.7556 17.6259L20.6951 17.6328C20.6638 17.3665 20.5905 17.1344 20.4911 16.9349C20.4819 16.9166 20.4726 16.8986 20.463 16.8808C20.4819 16.8749 20.5017 16.8689 20.5223 16.863C20.8023 16.7825 21.2407 16.7054 21.8931 16.7054C22.5867 16.7054 23.2461 16.8898 23.6889 17.2922C24.1108 17.6756 24.4117 18.3263 24.2639 19.4379L24.2242 19.7369L24.48 19.8924L24.4842 19.8953C24.4908 19.8999 24.503 19.9086 24.5189 19.9214C24.5513 19.9474 24.596 19.9877 24.6405 20.0409C24.7295 20.1473 24.8051 20.2891 24.8051 20.4711C24.8051 20.7158 24.7449 20.8906 24.655 21.0305C24.5611 21.1764 24.4191 21.3083 24.2212 21.4401L24.0134 21.5785V21.8261C24.0134 22.4494 23.8546 22.9203 23.6132 23.2243C23.4181 23.4701 23.1513 23.6309 22.8035 23.6755C21.9642 22.9121 20.8437 22.4458 19.6129 22.4458H18.4603C18.4873 22.4262 18.514 22.4062 18.5405 22.3859C19.3816 21.7415 19.9536 20.7617 20.0755 19.5773C20.6199 19.0156 20.7727 18.2933 20.6951 17.6328L20.7556 17.6259C20.8341 18.2941 20.6818 19.0285 20.1339 19.6037C20.009 20.7665 19.455 21.7349 18.6384 22.3859H19.6129C20.8492 22.3859 21.9758 22.8504 22.8235 23.6123C23.1413 23.565 23.3849 23.4146 23.5653 23.1874C23.796 22.8967 23.9525 22.4402 23.9525 21.8261V21.5467ZM28.2521 30.9401H3.75131V29.2729C3.75131 26.7564 5.58858 24.664 8.01011 24.2334C8.03765 24.2285 8.06527 24.2238 8.09296 24.2194C8.07034 24.2033 8.04802 24.1868 8.02602 24.1698C7.88816 24.0634 7.76276 23.9393 7.65125 23.7989C7.28776 23.3411 7.09371 22.7385 7.05673 22.0671C6.86923 21.9202 6.69422 21.7453 6.55568 21.5299C6.36455 21.2329 6.25843 20.8831 6.25843 20.4711C6.25843 20.012 6.45536 19.6675 6.63896 19.4479C6.6868 19.3907 6.73457 19.3408 6.77925 19.2983C6.67755 18.0906 7.02875 17.1979 7.67904 16.607C8.35442 15.9932 9.27699 15.7744 10.1128 15.7744C10.8862 15.7744 11.4355 15.8716 11.8181 15.9903C11.8386 15.9967 11.8586 16.0031 11.8781 16.0096C11.8791 15.9888 11.8803 15.9682 11.8816 15.9476C11.9494 14.863 12.3332 14.0046 13.0464 13.4038C13.9255 12.6633 15.0813 12.5159 16.0024 12.5159C16.9716 12.5159 18.1253 12.7266 18.9937 13.4808C19.6824 14.079 20.0723 14.9115 20.1375 15.9433C20.1388 15.9639 20.14 15.9845 20.141 16.0052C20.1606 15.9989 20.1806 15.9925 20.201 15.9863C20.583 15.8693 21.1285 15.7744 21.8931 15.7744C22.7289 15.7744 23.6515 15.9932 24.3269 16.607C24.9771 17.1979 25.3283 18.0906 25.2267 19.2983C25.2713 19.3408 25.3191 19.3907 25.3669 19.4479C25.5505 19.6675 25.7475 20.012 25.7475 20.4711C25.7475 20.8831 25.6414 21.2329 25.4502 21.5299C25.3117 21.7453 25.1367 21.9202 24.9492 22.0671C24.9122 22.7385 24.7181 23.3411 24.3547 23.7989C24.243 23.9395 24.1175 24.0637 23.9794 24.1702C23.9574 24.1871 23.9351 24.2036 23.9125 24.2197C23.9402 24.2242 23.9678 24.2289 23.9953 24.2338C26.4158 24.6651 28.2521 26.7572 28.2521 29.2729V30.9401ZM24.0585 24.1845C26.4817 24.6415 28.3129 26.746 28.3129 29.2729V31L3.69044 31V29.2729C3.69044 26.7453 5.52268 24.6403 7.94694 24.1841C7.82137 24.0822 7.70646 23.9657 7.60328 23.8358C7.23516 23.3721 7.03861 22.7668 6.99751 22.0971C6.81402 21.9505 6.64193 21.776 6.50425 21.562C6.30661 21.2548 6.19756 20.8938 6.19756 20.4711C6.19756 19.9942 6.40229 19.6367 6.59196 19.4099C6.63411 19.3594 6.67621 19.3146 6.7163 19.2752C6.62112 18.0669 6.97622 17.1642 7.63773 16.563C8.32816 15.9355 9.26777 15.7145 10.1128 15.7145C10.8817 15.7145 11.4331 15.8099 11.8218 15.9287C11.8931 14.8389 12.2818 13.9691 13.0068 13.3584C13.9028 12.6036 15.077 12.456 16.0024 12.456C16.9787 12.456 18.1498 12.668 19.034 13.4359C19.7331 14.0432 20.1284 14.8862 20.1973 15.9247C20.5853 15.8078 21.1329 15.7145 21.8931 15.7145C22.7381 15.7145 23.6777 15.9355 24.3682 16.563C25.0297 17.1642 25.3848 18.0669 25.2896 19.2752C25.3297 19.3146 25.3718 19.3594 25.4139 19.4099C25.6036 19.6367 25.8083 19.9942 25.8083 20.4711C25.8083 20.8938 25.6993 21.2548 25.5017 21.562C25.364 21.776 25.1919 21.9505 25.0084 22.0971C24.9673 22.7668 24.7707 23.3721 24.4026 23.8358C24.2993 23.9659 24.1842 24.0825 24.0585 24.1845ZM24.0021 25.2464C24.2489 25.8157 24.3854 26.4426 24.3854 27.1009V29.9492H27.2489V29.2729C27.2489 27.3088 25.8612 25.6651 24.0021 25.2464ZM23.9288 25.2306C24.1833 25.803 24.3246 26.4357 24.3246 27.1009V30.0091H27.3097V29.2729C27.3097 27.2651 25.8803 25.5872 23.972 25.1784C23.9475 25.1732 23.9229 25.1681 23.8983 25.1633C23.9087 25.1857 23.9188 25.2081 23.9288 25.2306ZM8.34067 25.1845C6.31362 25.4691 4.75451 27.191 4.75451 29.2729V29.9492H7.92993V27.1009C7.92993 26.4187 8.07665 25.7701 8.34067 25.1845ZM8.37033 25.12C6.2949 25.3924 4.69364 27.1479 4.69364 29.2729V30.0091H7.9908V27.1009C7.9908 26.4141 8.14136 25.762 8.41164 25.1751C8.42149 25.1537 8.43149 25.1324 8.44165 25.1112C8.41782 25.114 8.39404 25.1169 8.37033 25.12ZM13.3221 23.4367C13.6279 24.6175 14.712 25.4901 16.002 25.4901C17.292 25.4901 18.3761 24.6175 18.6819 23.4367H13.3221ZM13.2593 23.4367C13.2543 23.4168 13.2495 23.3969 13.2449 23.3768H18.7591C18.7545 23.3969 18.7497 23.4168 18.7447 23.4367C18.4374 24.6508 17.326 25.55 16.002 25.55C14.678 25.55 13.5666 24.6508 13.2593 23.4367ZM19.77 23.4399C21.745 23.5212 23.3214 25.129 23.3214 27.1009V29.9496H8.99401V27.1009C8.99401 25.2322 10.4097 23.6905 12.2388 23.4651C12.5744 25.2163 14.1314 26.5409 16.002 26.5409C17.8815 26.5409 19.4445 25.2036 19.77 23.4399ZM12.2885 23.399C12.5965 25.1498 14.1419 26.481 16.002 26.481C17.8695 26.481 19.4197 25.1393 19.7191 23.3783C21.7517 23.4338 23.3822 25.0793 23.3822 27.1009V30.0095H8.93314V27.1009C8.93314 25.1824 10.4015 23.6027 12.2885 23.399Z" fill="#1F2E64"/>
</svg>
