<svg width="33" height="32" viewBox="0 0 33 32" fill="none" xmlns="http://www.w3.org/2000/svg">
<path fill-rule="evenodd" clip-rule="evenodd" d="M16.8911 0V3.41329H15.6603V0H16.8911ZM21.8265 11.1205C21.9753 11.4113 22.0855 11.7552 22.1302 12.1555L22.1302 12.1556C22.2316 13.0638 22.0321 14.0566 21.321 14.8289C21.1567 16.5086 20.367 17.889 19.2111 18.7727H20.7181C22.3249 18.7727 23.7879 19.4131 24.8839 20.462C25.3374 20.4004 25.6854 20.1794 25.9401 19.8418C26.2553 19.4238 26.4627 18.7765 26.4627 17.9195V17.5791L26.7342 17.3888C26.9926 17.2077 27.1781 17.0263 27.3007 16.8257C27.4182 16.6335 27.4968 16.3931 27.4968 16.0567C27.4968 15.8065 27.398 15.6115 27.2817 15.4652C27.2236 15.3921 27.1652 15.3367 27.123 15.3009C27.1022 15.2833 27.0863 15.2713 27.0777 15.2651L27.0721 15.2611L26.738 15.0473L26.79 14.6362C26.983 13.1081 26.59 12.2134 26.0389 11.6863C25.4606 11.133 24.5994 10.8796 23.6935 10.8796C22.7794 10.8796 22.187 11.0015 21.8265 11.1205ZM12.7912 18.7727C11.6353 17.889 10.8456 16.5086 10.6813 14.8289C9.97019 14.0567 9.77058 13.0638 9.87202 12.1556L11.2997 11.9537C11.2642 12.059 11.2371 12.178 11.2221 12.3122C11.1415 13.0338 11.3462 13.715 12.0082 14.1698C12.0082 16.7553 13.7959 18.4555 16.0011 18.4555C18.2063 18.4555 19.994 16.7554 19.994 14.1698C20.656 13.7149 20.8607 13.0338 20.7802 12.3122C20.6766 11.3853 19.994 11.1874 19.994 11.1874C20.0148 11.0259 20.0303 10.8695 20.0407 10.7181C20.2644 7.44952 18.1087 6.50582 16.0011 6.50582C13.7959 6.50582 11.6199 7.29396 12.0082 11.1874C12.0082 11.1874 11.509 11.3321 11.2997 11.9537L9.87203 12.1555C9.91673 11.7553 10.0268 11.4115 10.1756 11.1207C9.81516 11.0017 9.22255 10.8796 8.30775 10.8796C7.4019 10.8796 6.54063 11.133 5.96234 11.6863C5.41131 12.2134 5.0183 13.1081 5.2113 14.6362L5.26323 15.0473L4.92916 15.2611L4.92358 15.2651C4.91499 15.2713 4.8991 15.2833 4.8783 15.3009C4.83604 15.3367 4.77764 15.3921 4.71954 15.4652C4.60329 15.6115 4.50445 15.8065 4.50445 16.0567C4.50445 16.3931 4.58308 16.6335 4.70058 16.8257C4.82317 17.0263 5.0087 17.2077 5.2671 17.3888L5.53854 17.5791V17.9195C5.53854 18.7765 5.74593 19.4238 6.06118 19.8418C6.36373 20.2429 6.7981 20.4795 7.38468 20.4795V20.6023C8.49469 19.4706 10.0152 18.7727 11.6925 18.7727H12.7912ZM10.6145 9.92332C10.689 8.39221 11.1913 7.183 12.1404 6.34151C13.2886 5.32341 14.7981 5.12075 16.0011 5.12075C17.267 5.12075 18.7739 5.41046 19.9081 6.44733C20.8252 7.28584 21.3366 8.45916 21.4065 9.91649C21.9082 9.74424 22.6424 9.59962 23.6935 9.59962C24.7851 9.59962 25.99 9.90036 26.8722 10.7442C27.7215 11.5567 28.1802 12.7839 28.0474 14.4443C28.1057 14.5028 28.1681 14.5713 28.2306 14.65C28.4704 14.9518 28.7276 15.4254 28.7276 16.0567C28.7276 16.6231 28.589 17.104 28.3394 17.5124C28.1584 17.8084 27.9298 18.0489 27.6849 18.2508C27.6366 19.1739 27.3832 20.0024 26.9085 20.6318C26.7392 20.8562 26.5454 21.0502 26.3301 21.2109C29.5464 21.7565 32.0013 24.6595 32.0013 28.1587V31.9986H26.8719V31.9992H5.53872V31.9986H0V28.1587C0 24.6595 2.45484 21.7565 5.67119 21.2109C5.45585 21.0502 5.26208 20.8562 5.09282 20.6318C4.61807 20.0024 4.36463 19.1739 4.31633 18.2508C4.07143 18.0489 3.84286 17.8084 3.66192 17.5124C3.41228 17.104 3.27369 16.6231 3.27369 16.0567C3.27369 15.4254 3.5309 14.9518 3.7707 14.65C3.83317 14.5713 3.89557 14.5028 3.95392 14.4443C3.8211 12.7839 4.27979 11.5567 5.12912 10.7442C6.01122 9.90036 7.21616 9.59962 8.30775 9.59962C9.37278 9.59962 10.1124 9.74808 10.6145 9.92332ZM11.2997 11.9537C11.2997 11.9537 11.2997 11.9537 11.2997 11.9537L20.0407 10.7181L11.2997 11.9537ZM26.8719 25.1726C26.8719 24.222 26.6727 23.3199 26.3152 22.5089C28.8554 23.0326 30.7705 25.3631 30.7705 28.1587V30.7187H26.8719V25.1726ZM1.23076 28.1587C1.23076 25.2032 3.37107 22.7677 6.12763 22.437C5.74997 23.2665 5.53872 24.1939 5.53872 25.1726V30.7187H1.23076V28.1587ZM12.4001 20.0527C12.7732 21.7627 14.2437 23.0392 16.0008 23.0392C17.758 23.0392 19.2285 21.7627 19.6016 20.0527H12.4001ZM20.8555 20.0546C23.5109 20.1303 25.6412 22.3927 25.6412 25.1726V30.7192H6.76948V25.1726C6.76948 22.5353 8.68682 20.3637 11.1509 20.0833C11.5536 22.4896 13.5718 24.3192 16.0008 24.3192C18.4395 24.3192 20.464 22.4751 20.8555 20.0546ZM20.0213 4.1302L21.6623 1.17421L20.5964 0.534215L18.9554 3.49021L20.0213 4.1302ZM10.7513 1.17421L12.3923 4.1302L13.4581 3.49021L11.8171 0.534215L10.7513 1.17421Z" fill="#1F2E64"/>
</svg>
