<svg width="32" height="32" viewBox="0 0 32 32" fill="none" xmlns="http://www.w3.org/2000/svg">
<path fill-rule="evenodd" clip-rule="evenodd" d="M28.7271 3.24493H24.1684V28.7545H28.7271V3.24493ZM22.8781 2V28.7562H19.7037V14.0556H12.5645V28.7562H9.39316V20.278H2.25391V28.7562H0.269531V30.0007H31.9995V28.7562H30.0174V2H22.8781ZM13.8547 15.3005H18.4134V28.7548H13.8547V15.3005ZM8.10288 21.523H3.54418V28.7551H8.10288V21.523ZM14.4956 8.08142C14.7984 8.22293 15.1674 8.29368 15.6027 8.29368C15.9102 8.29368 16.1846 8.25716 16.4259 8.18413C16.6671 8.10653 16.8682 7.99925 17.0291 7.86231C17.1946 7.72537 17.32 7.56104 17.4052 7.36932C17.4903 7.1776 17.5329 6.96762 17.5329 6.73938C17.5329 6.32399 17.4099 6.00446 17.1639 5.78079C16.9179 5.55255 16.5394 5.39963 16.0284 5.32203L15.5388 5.24671C15.3306 5.21476 15.1792 5.16226 15.0846 5.08923C14.9947 5.01619 14.9498 4.89751 14.9498 4.73318C14.9498 4.58711 15.0089 4.47299 15.1272 4.39082C15.2455 4.30866 15.4252 4.26757 15.6665 4.26757C15.922 4.26757 16.1325 4.31094 16.2981 4.39767C16.4684 4.47983 16.6127 4.58711 16.731 4.71948L17.4478 4.02108C17.2443 3.80197 17.0007 3.63536 16.7168 3.52124C16.4329 3.40712 16.1041 3.35006 15.7304 3.35006C15.4371 3.35006 15.1745 3.38658 14.9427 3.45961C14.7156 3.52808 14.5216 3.62623 14.3608 3.75404C14.2046 3.88185 14.084 4.03477 13.9988 4.2128C13.9137 4.39082 13.8711 4.58711 13.8711 4.80165C13.8711 5.20335 13.9918 5.52516 14.233 5.76709C14.479 6.00902 14.8646 6.16194 15.3898 6.22585L15.8794 6.28747C16.1112 6.31943 16.265 6.38105 16.3407 6.47235C16.4164 6.55908 16.4542 6.66863 16.4542 6.80101C16.4542 6.97447 16.3904 7.11369 16.2626 7.21868C16.1349 7.32367 15.9386 7.37617 15.6736 7.37617C15.1816 7.37617 14.7676 7.19358 14.4317 6.8284L13.7221 7.51996C13.935 7.74819 14.1928 7.93535 14.4956 8.08142ZM5.3119 4.99337L5.78736 5.95197L7.1428 8.21151H8.32082V3.43223H7.30602V6.65037H7.28473L6.80926 5.69177L5.45383 3.43223H4.27581V8.21151H5.29061V4.99337H5.3119ZM1.02899 8.16359C1.25135 8.25032 1.50446 8.29368 1.78832 8.29368C2.12895 8.29368 2.43174 8.24119 2.69667 8.1362C2.96634 8.03121 3.18396 7.88514 3.34955 7.69798L2.82441 7.06805C2.70613 7.18673 2.5784 7.28944 2.4412 7.37617C2.304 7.45833 2.12659 7.49941 1.90896 7.49941C1.6251 7.49941 1.41694 7.43094 1.28447 7.294C1.152 7.15249 1.08576 6.96306 1.08576 6.72569V6.67091H3.47729V6.36964C3.47729 6.12771 3.44417 5.89719 3.37794 5.67808C3.31643 5.45441 3.21472 5.25812 3.07279 5.08923C2.93559 4.92033 2.75581 4.78567 2.53345 4.68525C2.31583 4.58482 2.05325 4.53461 1.74574 4.53461C1.46661 4.53461 1.21823 4.58026 1.00061 4.67155C0.782981 4.75828 0.598472 4.88381 0.44708 5.04815C0.300419 5.21248 0.18924 5.41104 0.113544 5.64384C0.037848 5.87208 0 6.12771 0 6.41072C0 6.6983 0.037848 6.95849 0.113544 7.19129C0.193971 7.4241 0.309881 7.62266 0.461273 7.78699C0.617396 7.94676 0.806636 8.07229 1.02899 8.16359ZM1.26318 5.48636C1.38618 5.34942 1.55413 5.28095 1.76703 5.28095C1.97992 5.28095 2.13605 5.34942 2.2354 5.48636C2.33948 5.61874 2.39152 5.79448 2.39152 6.01359V6.07521H1.08576V6.02044C1.08576 5.79676 1.1449 5.61874 1.26318 5.48636ZM9.41107 8.21151V3.43223H11.7529C11.9847 3.43223 12.1929 3.47103 12.3774 3.54863C12.5619 3.62166 12.718 3.72437 12.8458 3.85675C12.9782 3.98912 13.08 4.15117 13.1509 4.34289C13.2219 4.53005 13.2574 4.73546 13.2574 4.95913C13.2574 5.18737 13.2219 5.39507 13.1509 5.58222C13.08 5.76938 12.9782 5.92914 12.8458 6.06152C12.718 6.1939 12.5619 6.29889 12.3774 6.37649C12.1929 6.44952 11.9847 6.48604 11.7529 6.48604H10.4897V8.21151H9.41107ZM10.4897 5.58222H11.6252C11.786 5.58222 11.9114 5.54342 12.0013 5.46582C12.0959 5.38365 12.1432 5.26497 12.1432 5.10977V4.8085C12.1432 4.6533 12.0959 4.53689 12.0013 4.45929C11.9114 4.37713 11.786 4.33605 11.6252 4.33605H10.4897V5.58222Z" fill="#1F2E64"/>
</svg>
