<svg xmlns="http://www.w3.org/2000/svg" width="32" height="32" viewBox="0 0 32 32" fill="none"><g clip-path="url(#clip0)"><path d="M16 0.000976562C7.16479 0.000976562 0 7.16577 0 16.001C0 24.8362 7.16479 32.001 16 32.001C24.8352 32.001 32 24.8362 32 16.001C32 7.16577 24.8352 0.000976562 16 0.000976562ZM23.3054 12.4761C23.3125 12.6335 23.3159 12.7917 23.3159 12.9507C23.3159 17.8035 19.6221 23.3994 12.8669 23.3997H12.8672H12.8669C10.793 23.3997 8.86304 22.7917 7.23779 21.75C7.52515 21.7839 7.81763 21.8008 8.11377 21.8008C9.83447 21.8008 11.418 21.2139 12.675 20.2288C11.0674 20.199 9.71191 19.1372 9.24414 17.678C9.46802 17.7209 9.69824 17.7444 9.93433 17.7444C10.2695 17.7444 10.5942 17.6992 10.9028 17.615C9.22241 17.2786 7.95654 15.7935 7.95654 14.0151C7.95654 13.9985 7.95654 13.9836 7.95703 13.9683C8.4519 14.2434 9.01782 14.4089 9.62036 14.4275C8.63428 13.7695 7.98608 12.6448 7.98608 11.3706C7.98608 10.6978 8.16797 10.0674 8.4834 9.52466C10.2944 11.7468 13.001 13.2083 16.0532 13.3618C15.9902 13.0928 15.9578 12.8125 15.9578 12.5244C15.9578 10.4971 17.6025 8.85229 19.6306 8.85229C20.687 8.85229 21.6411 9.29883 22.3113 10.0127C23.1479 9.84766 23.9336 9.54199 24.6433 9.12134C24.3687 9.97852 23.7866 10.6978 23.0283 11.1526C23.7712 11.0637 24.4792 10.8667 25.1372 10.5742C24.6458 11.3108 24.0225 11.9578 23.3054 12.4761V12.4761Z" fill="#C8C9D1"></path></g><defs><clipPath id="clip0"><rect width="32" height="32" fill="white" transform="translate(0 0.000976562)"></rect></clipPath></defs></svg>